<mxfile host="app.diagrams.net" agent="Mozilla/5.0 (Windows NT 10.0; Win64; x64) AppleWebKit/537.36 (KHTML, like Gecko) Chrome/133.0.0.0 Safari/537.36 OPR/118.0.0.0 (Edition std-2)" version="27.0.5">
  <diagram name="PÃ¡gina-1" id="maUf9u677qmSjUMViVZ9">
    <mxGraphModel dx="974" dy="525" grid="1" gridSize="10" guides="1" tooltips="1" connect="1" arrows="1" fold="1" page="1" pageScale="1" pageWidth="827" pageHeight="1169" math="0" shadow="0">
      <root>
        <mxCell id="0" />
        <mxCell id="1" parent="0" />
        <mxCell id="eJ2LpnvItJs-uyWbNVWC-1" value="" style="ellipse;whiteSpace=wrap;html=1;aspect=fixed;" vertex="1" parent="1">
          <mxGeometry x="360" y="160" width="130" height="130" as="geometry" />
        </mxCell>
        <mxCell id="eJ2LpnvItJs-uyWbNVWC-2" value="" style="ellipse;whiteSpace=wrap;html=1;aspect=fixed;fillColor=light-dark(#FFFFFF,#FFFFFF);" vertex="1" parent="1">
          <mxGeometry x="370" y="140" width="30" height="30" as="geometry" />
        </mxCell>
        <mxCell id="eJ2LpnvItJs-uyWbNVWC-3" value="" style="ellipse;whiteSpace=wrap;html=1;aspect=fixed;fillColor=light-dark(#FFFFFF,#FFFFFF);" vertex="1" parent="1">
          <mxGeometry x="340" y="180" width="30" height="30" as="geometry" />
        </mxCell>
        <mxCell id="eJ2LpnvItJs-uyWbNVWC-4" value="" style="ellipse;whiteSpace=wrap;html=1;aspect=fixed;fillColor=light-dark(#FFFFFF,#FFFFFF);" vertex="1" parent="1">
          <mxGeometry x="340" y="230" width="30" height="30" as="geometry" />
        </mxCell>
        <mxCell id="eJ2LpnvItJs-uyWbNVWC-5" value="" style="ellipse;whiteSpace=wrap;html=1;aspect=fixed;fillColor=light-dark(#FFFFFF,#FFFFFF);" vertex="1" parent="1">
          <mxGeometry x="370" y="270" width="30" height="30" as="geometry" />
        </mxCell>
        <mxCell id="eJ2LpnvItJs-uyWbNVWC-6" value="" style="ellipse;whiteSpace=wrap;html=1;aspect=fixed;fillColor=light-dark(#FFFFFF,#FFFFFF);" vertex="1" parent="1">
          <mxGeometry x="420" y="280" width="30" height="30" as="geometry" />
        </mxCell>
        <mxCell id="eJ2LpnvItJs-uyWbNVWC-9" value="" style="endArrow=classic;html=1;rounded=0;exitX=1;exitY=0.5;exitDx=0;exitDy=0;fillColor=#f5f5f5;strokeColor=#666666;" edge="1" parent="1" source="eJ2LpnvItJs-uyWbNVWC-10">
          <mxGeometry width="50" height="50" relative="1" as="geometry">
            <mxPoint x="300.00339828220183" y="174.76339828220182" as="sourcePoint" />
            <mxPoint x="280" y="180" as="targetPoint" />
          </mxGeometry>
        </mxCell>
        <mxCell id="eJ2LpnvItJs-uyWbNVWC-10" value="" style="ellipse;whiteSpace=wrap;html=1;fillColor=#f5f5f5;gradientColor=#b3b3b3;strokeColor=#666666;" vertex="1" parent="1">
          <mxGeometry x="190" y="164.39" width="40" height="15.61" as="geometry" />
        </mxCell>
        <mxCell id="eJ2LpnvItJs-uyWbNVWC-11" value="" style="ellipse;whiteSpace=wrap;html=1;fillColor=#f5f5f5;gradientColor=#b3b3b3;strokeColor=#666666;" vertex="1" parent="1">
          <mxGeometry x="210" y="109.99999999999999" width="40" height="15.61" as="geometry" />
        </mxCell>
        <mxCell id="eJ2LpnvItJs-uyWbNVWC-12" value="" style="ellipse;whiteSpace=wrap;html=1;fillColor=#f5f5f5;gradientColor=#b3b3b3;strokeColor=#666666;" vertex="1" parent="1">
          <mxGeometry x="178.5" y="244.39" width="40" height="15.61" as="geometry" />
        </mxCell>
        <mxCell id="eJ2LpnvItJs-uyWbNVWC-13" value="" style="ellipse;whiteSpace=wrap;html=1;fillColor=#f5f5f5;strokeColor=#666666;gradientColor=#b3b3b3;" vertex="1" parent="1">
          <mxGeometry x="240" y="340" width="40" height="15.61" as="geometry" />
        </mxCell>
        <mxCell id="eJ2LpnvItJs-uyWbNVWC-14" value="" style="ellipse;whiteSpace=wrap;html=1;fillColor=#647687;fontColor=#ffffff;strokeColor=#314354;" vertex="1" parent="1">
          <mxGeometry x="300" y="370" width="40" height="15.61" as="geometry" />
        </mxCell>
        <mxCell id="eJ2LpnvItJs-uyWbNVWC-18" value="" style="endArrow=classic;html=1;rounded=0;exitX=1;exitY=0.5;exitDx=0;exitDy=0;fillColor=#f5f5f5;strokeColor=#666666;" edge="1" parent="1">
          <mxGeometry width="50" height="50" relative="1" as="geometry">
            <mxPoint x="220" y="252" as="sourcePoint" />
            <mxPoint x="280" y="252" as="targetPoint" />
          </mxGeometry>
        </mxCell>
        <mxCell id="eJ2LpnvItJs-uyWbNVWC-19" value="" style="endArrow=classic;html=1;rounded=0;exitX=1;exitY=0.5;exitDx=0;exitDy=0;fillColor=#f5f5f5;strokeColor=#666666;" edge="1" parent="1">
          <mxGeometry width="50" height="50" relative="1" as="geometry">
            <mxPoint x="250" y="122" as="sourcePoint" />
            <mxPoint x="310" y="130" as="targetPoint" />
          </mxGeometry>
        </mxCell>
        <mxCell id="eJ2LpnvItJs-uyWbNVWC-20" value="" style="endArrow=classic;html=1;rounded=0;exitX=1;exitY=0.5;exitDx=0;exitDy=0;fillColor=#f5f5f5;strokeColor=#666666;" edge="1" parent="1">
          <mxGeometry width="50" height="50" relative="1" as="geometry">
            <mxPoint x="280" y="350" as="sourcePoint" />
            <mxPoint x="330" y="330" as="targetPoint" />
          </mxGeometry>
        </mxCell>
        <mxCell id="eJ2LpnvItJs-uyWbNVWC-21" value="" style="endArrow=none;html=1;rounded=0;edgeStyle=orthogonalEdgeStyle;" edge="1" parent="1">
          <mxGeometry width="50" height="50" relative="1" as="geometry">
            <mxPoint x="340" y="380" as="sourcePoint" />
            <mxPoint x="435" y="310" as="targetPoint" />
            <Array as="points">
              <mxPoint x="340" y="381" />
              <mxPoint x="435" y="381" />
              <mxPoint x="435" y="306" />
            </Array>
          </mxGeometry>
        </mxCell>
        <mxCell id="eJ2LpnvItJs-uyWbNVWC-22" value="" style="endArrow=none;html=1;rounded=0;entryX=0;entryY=1;entryDx=0;entryDy=0;" edge="1" parent="1" target="eJ2LpnvItJs-uyWbNVWC-5">
          <mxGeometry width="50" height="50" relative="1" as="geometry">
            <mxPoint x="330" y="330" as="sourcePoint" />
            <mxPoint x="380" y="280" as="targetPoint" />
          </mxGeometry>
        </mxCell>
        <mxCell id="eJ2LpnvItJs-uyWbNVWC-24" value="" style="endArrow=none;html=1;rounded=0;entryX=0;entryY=1;entryDx=0;entryDy=0;" edge="1" parent="1">
          <mxGeometry width="50" height="50" relative="1" as="geometry">
            <mxPoint x="280" y="250" as="sourcePoint" />
            <mxPoint x="340" y="246" as="targetPoint" />
          </mxGeometry>
        </mxCell>
        <mxCell id="eJ2LpnvItJs-uyWbNVWC-25" value="" style="endArrow=none;html=1;rounded=0;entryX=0;entryY=1;entryDx=0;entryDy=0;" edge="1" parent="1">
          <mxGeometry width="50" height="50" relative="1" as="geometry">
            <mxPoint x="280" y="180" as="sourcePoint" />
            <mxPoint x="340" y="196" as="targetPoint" />
          </mxGeometry>
        </mxCell>
        <mxCell id="eJ2LpnvItJs-uyWbNVWC-26" value="" style="endArrow=none;html=1;rounded=0;entryX=0;entryY=0.5;entryDx=0;entryDy=0;" edge="1" parent="1" target="eJ2LpnvItJs-uyWbNVWC-2">
          <mxGeometry width="50" height="50" relative="1" as="geometry">
            <mxPoint x="310" y="130" as="sourcePoint" />
            <mxPoint x="354" y="136" as="targetPoint" />
          </mxGeometry>
        </mxCell>
        <mxCell id="eJ2LpnvItJs-uyWbNVWC-27" value="" style="endArrow=classic;html=1;rounded=0;" edge="1" parent="1">
          <mxGeometry width="50" height="50" relative="1" as="geometry">
            <mxPoint x="490" y="230" as="sourcePoint" />
            <mxPoint x="530" y="230" as="targetPoint" />
          </mxGeometry>
        </mxCell>
        <mxCell id="eJ2LpnvItJs-uyWbNVWC-28" value="&lt;font style=&quot;font-size: 18px;&quot;&gt;f(x)&lt;/font&gt;" style="whiteSpace=wrap;html=1;aspect=fixed;" vertex="1" parent="1">
          <mxGeometry x="530" y="200" width="70" height="70" as="geometry" />
        </mxCell>
        <mxCell id="eJ2LpnvItJs-uyWbNVWC-29" value="" style="endArrow=classic;html=1;rounded=0;" edge="1" parent="1">
          <mxGeometry width="50" height="50" relative="1" as="geometry">
            <mxPoint x="600" y="230" as="sourcePoint" />
            <mxPoint x="670" y="230" as="targetPoint" />
          </mxGeometry>
        </mxCell>
        <mxCell id="eJ2LpnvItJs-uyWbNVWC-36" value="" style="shape=image;verticalLabelPosition=bottom;labelBackgroundColor=default;verticalAlign=top;aspect=fixed;imageAspect=0;image=data:image/png,iVBORw0KGgoAAAANSUhEUgAAAB8AAAAhCAIAAACuvOezAAAHHElEQVRIDZVWa6+V1RHef6KJKRY+9JMJTUuKqVCqtmBtqrGNlnMRwUBIQOuXRqnlqkEaI9qgaZvQVKuNl0LACEJLRSEg6gdjysUDZ1O5ebgoh3323u+7rjNrZq1m1tpsTwlJ0zcnb/ZJ3vXMrGeeeWYakVKklDgljolZ3jFxCIQhUiJksGC1AwuEVD6edKQczGfjdZ7GpE9jDtB7R4qREocYfECH6JCQEksqk478L/RyQHKPkz/t/06EFHwIPhASBwn5f6BziKnHTEaMJYzwk6IAcYgl93KJa6C/YvU6xMSGoBT09FW+QhFxQUeHBbfkLtlIka6mkvrZXAe+AQ5LOsELHAc5FokLY4Qsx6W8VHhPLLcpMSKl4AOH/M0kcDmSn4bRLnKiEK3xFFLAlFLSyqhaE5KuNFhQXWWUwZxHCdO7ASVnvNQ/RgpBLs8cYxSIHKABEGJMSpkvvhx/+eVXt255c+fO3S+99Epz9GSkBBYunb+0d8/eZ595bteOXUYZq125SilY4d17j4gxRma5R3lijI2qUs6B1vbs2bHly375nW/PvPnmWWvWPPHZyVPo5CJXvrzy1JNPzZwx8/cv/MEo44znEIv2C0WqVs65lFLITz+AoCOyc1BuMzIyunTp8mnTvvmnzX9uT3RUV6WUmsebSxcvXbt6XetyCyxkonu8S/iYwIP3vqD7/IQQCkWNcou61gABMf71lddnzZqzfNnD586OiTBS+vDQR4sWLNq9c7eudLvVTiyVRIccYmeiW+6H+QEApVRd1845AAghNLzHGJP3aI13FpvN0ytWrJwx47svvfiXulMnTlve2DJw38Cpk6fAQtWuEiVdaSE9SphICQELGwCgtVZKee976M6C98JvjMkYaLfV5s0v3nLL7Oc3vRApnhw9ueTBxRuf3qi6qoinO9E1yiROrcstq4VuECiIMSLiZGYkdxE7C3RAMlpEue+9A0ODw7O+N3vXjt3vvbPvnrt/vu/d/WJkDhECOEycLnx+YeWvV27+42Zd6cTJe++cY+ainCJHQecQfXbBUi5voerUG9b/9savT31y7fqHlj0yOHB/XRtnwTogToiklXlnz97hweGh+UPN402rbQCgEIrS+2/RDFgAC9744EPuVSakt97cMf2mb829/Y4f3nbHihWrECNRopiAojKurvUXly5v37r9w0MfSVU5GaWcsaWb+o0q6AKau6Z0o9XWG39x7OLq36yZOmXaXT+9Z//+gzrzyzEFlj9EVrUBCykmdJgP+kjSpdc8GT1bh3Rd6vmJM+6ff98z/abpjz26oqqUNS4E7laKU3JZAhS4264+PTpy5rMzwSOHINaUu/+/cnfGF8MCCxxi7hcE6/72+htzZn//tVdfq2sVgkRWxqSUkOjw4SOrV61+7FePrnp85bEjR3WtwLrC+7W5F4MEC9mPRMKE4kdPb9hw/9DQmdOnlZKODSEQE2STGx0dfX7Tpvn33nvnvHmffPyxrmt0wkzJunRpCSOKtNr1PK80bkr/bjaHBuZv+t2z3hnnDCJ2u12RdvBIwBxaVy4/uHDBz+6+q3liRA5xpHy/ybRIVWPPRaU7/rF7z7Yt27Zv3fbIQw8vemDBiZGjAT0zeu+00RAgSmNQSjTRGh8enD88OP/C2FlvNGf7ney9vdzLlNGVfvutt2+dc9sNX7th6pRvTJ1y43MbnyH0kTEQhJxvrStKgWNIieq6Ozjwi4UPDH9+9jQ6J7RkIywmXKCZWXLPgjUH9x9c9fiqgfsGFi1YuGH9+g/ePxhJhpBzJkbC4EGmFxMH5tDtthcuXDD3R7efGDkG1hJiYSbGWFxBaARo9Cdkt90ZOzc2du68URqsw2LZiACQ2WTnHUXmyIHC+PjlJUsW/+TOHx89fLhqt52xfc1470thEVGcgJDQgXRz3pAiCUDiGACMNpglFIQgGbJI5L0fHW0ODAzOmzvv/QMHCYNsV1ep7+cuPkPIMvUBE8eMK5K32padoExfRPFYny0jpdRqtdate+IHc24dHBhau3rtyNFjzlgEQMRAwVpbDFl4t9rpShcnijRpm8i7XyQug0bISck4V2sdAp0/f/H48ea/Pjly6MAHJz49Lg7nvbXWe99qtUoAyd0ZryujurVRSnXrMpQTi4FYbcHLiMka6O1q1smQQ2RrUCtfdzQ67ExMXBkfR0RrbafTsdaWnHJVKe9GLMrorxL9BS2LLCKyjKB8A2s8YmRKddcSpPaVjtUmEjvnAoWqqpxzfb3npU4W4PxDekUWjTKRKTBxlM0se1wUncmGAsBEiSkxpuBJbNwDMwFAVVXe+yL8hjQxIomFyy6WHS0GCD4HQAhMpVGygwZJWWrA8ldWQfn36nR1zmltiihzNxVSs8NIQGIKBIAcuKyo/XdvPy2r8tUdtreG5qKDqDo4KXCvWv8BgXQAxymiUEYAAAAASUVORK5CYII=;" vertex="1" parent="1">
          <mxGeometry x="670" y="218.5" width="31" height="33" as="geometry" />
        </mxCell>
        <mxCell id="eJ2LpnvItJs-uyWbNVWC-37" value="" style="shape=image;verticalLabelPosition=bottom;labelBackgroundColor=default;verticalAlign=top;aspect=fixed;imageAspect=0;image=data:image/png,iVBORw0KGgoAAAANSUhEUgAAACMAAAAhCAYAAABTERJSAAAAAXNSR0IArs4c6QAAAARnQU1BAACxjwv8YQUAAAAJcEhZcwAADsMAAA7DAcdvqGQAAAY2SURBVFhHzZbPbxRHHsU/VV3VNZ6xPbtG2JKJBFpEbihISNwsZJCAw0YKZC8IgQQ35D+BCxyT6+aAZBTngJeNUAjyAU5w2QhxR+KXiFegAYKVsc14Znq6u7pqDz09O+Mxu4sWNvuklqarprtevfe+32rhvfd8BBSvFUJsnnon5OaB3xL/V2TEx7JpKxRLee+RcliH4ZGPCO89WZbhnBsYK/CbKMM7gv0/JfPv8F42ee8Hdveh8V5khBBbyvsuvC/x9yLjnCOOYzY2NkiShGaz2Zuz1vZ+p0lCpx0hulx8NhhYt5lk93YoM4UVRel57xFC4L0njmMajQZ37twhTVOstVSrVXbu3Mnk5CT1ep3l5WVev3zFJ5/s4PChw4yNjZGmKYEKeusKKXOVN3HaUpnCCuccWZb1CCmlqFQqVCoVbty4wc2bN7ly5QrXr1/HGMPdu3e5dOkSj588xjlHalOQkkAFZDYv6UAG+KK0BdCnxRCZrXwuxoIgIAxDjhw5wtmzZ7HWsra2xuzsLFNTU7x8+ZKjR49y4cIFjh07xsTENlyW26fDkCBQZJkdLAQpoXv/L23y3SYVBEHPKrrKWWuZn5/n2rVrzMzMUCqVePbsGXNzc+z77DOEB5tZnHMYY1BKd/OSqyK778T5nMxWmXHODVRN/3RBKE1TtNY0Gg0uXrzIw4cPATh16hRnzpzBpilSCKRS+MwhICchJA5HZjO01kgheuFlK5s2o5+Yc66XHyEExhgOHz7M1NQUtVqN8fFxoijqPRu3I1rNJq12K9+kFEgZoMMQIQTOeZzLcC6DrcjIbtI3o39MCEGn00FKycbGBrVajenpaS5fvsytW7dQWiOERGlFZXSUSrlCECjiqINN025uPXiHc/nlvR8mU6D4U/+hJqVESolSijAMWV1d5fbt2xw8eJB9+/bx9OlTHjx4wC+vf4G+DWQuI8ssxhjCMCRLU4TP17A2w7vcqwEy/fkoFgZI05QkSQaIWWtZXFxk165dnD9/nunpaf6wezf3799naWkJ7x1S5r0lTW1urZR0Wi3iOKb+668sLHzHwrff0mw1EVK+WxnvfS/MSqkB+4pKWlhY4MSJE2zfvp1z587xpy+/pFarUavV+PnnZZobG3Q6EcYYgkCRdDoIIVlcXOSrr7/iu4UFXr1+RRiGJJ3OIJnNWekPrFIK3+3CT5484d69e5w8eZIdO3aQJAnVapUDBw4wMzPDTz/9jW+++TMvXrxAa40IJAhBq90iNIY9ez5lamqKyclJtk1sw9oMGbxDmYJAEAQD2YmiiPX1da5evYq1ljdv3pAkCVprrLWUy2W01uzduxeAH2/+SNSOSKIOaRwzWhlFBJLZ2Vn27PmUKIqwmSWO49zGos8UBKzNO6TWeZPyfQ0wSRIajQaPHj2i0WiQJAmHDh2iWq2SZRnNZpPnz5+zbWKCtdVVVuur7N+/H6U1xpheFWqtWFpaYn5+nuPHT3D69Ol8fjOZNE0BBsiIvl5jrUUp1SNdqFcEPk1TlAzIuseACkNskvQqpljrhxs/8P1fv+ePn3/O8S++YHx8/J82FYsppdBa9x7Ksmzgu1UplS+oVK/ClFJkWYbNcqLOO1SQh94mCUmSkKQJOgyRgcRmlmazSX21zt+Xl3tNcSgzotvyi5wEQYCUciA7xVWQ6Irb230gA5x3SCFRYUgYhoyMjJBlljRJKJcrTPx+grHRMWxmKRmDKZWGyfSrURApGl2hjjGGdruNMQZjDNZatNZorXMVvSdNLe2oDYBSGqkUUgaUKhVarRYj5TLV31XpdGI2mnnvGSJTlLHWeqjUi34DMDo62hvvt1UpBQK0CSmPjmLTFNc9DT35+7Qp0Wy3WXvbINCayugYIlDDZP5TFNb0oyBfqOm9J1AKIQRZ8bEFSBmglCGOU4wZwZTKaP1fkNmsWj+stURRRJIkWJsfBYGUGBMCEMcJ5ZEy27dPUqmM4ZwnTbcI8IdAf0UGQXE+pTSbLQDKI4bHTx5Tr6+ysrLC27fruMwNf1x9CHjve6FO05QoiiiVSoRhSL2+zrW/XOPR40c0m01WVlbYvXs3c3NzH4eMc65nkVKKUqnUa54u86ytr2OMIY5jgDwvMuAfZgzC+mzIRfEAAAAASUVORK5CYII=;" vertex="1" parent="1">
          <mxGeometry x="172" y="92.61" width="35" height="33" as="geometry" />
        </mxCell>
        <mxCell id="eJ2LpnvItJs-uyWbNVWC-38" value="" style="shape=image;verticalLabelPosition=bottom;labelBackgroundColor=default;verticalAlign=top;aspect=fixed;imageAspect=0;image=data:image/png,iVBORw0KGgoAAAANSUhEUgAAACkAAAAnCAYAAACSamGGAAAAAXNSR0IArs4c6QAAAARnQU1BAACxjwv8YQUAAAAJcEhZcwAADsMAAA7DAcdvqGQAAAfdSURBVFhH7ZdNjBzFGYafqq7+m1lnd3axFbw2GFj+RBLAGyWLFMKNGCmQHJBQgjkQFLAMh3DkRzmEJFq4EJGsuSACIo7ExVFigcGWYpOQS5AMji2xJvYaDBEYg+Px7Mx0d/3l0NPjYQGz43DgwDsqTXf1111vv/V9b1UL55wXQvBFhlza8UXElyQ/L3xJ8vPCWZP03i/t+kQsN+5MOGuSlW1VJD6NzNK4s8FZk/Te473vk/gkr61iPu36meF7DeSwNztn8TjyIifPcwCMMaevW4/WlpKbIMvy/vXTarpltIqkH15J5x25LkjiBO89i4uLKKU4dapFnmuEFHgPWlsA0jQhyzKazeYAycH/T2unIfwwyeIBAZkukEIQBgoGplJrh3OWKApptRYJVUhai5fkrUPK5cyeLAcbWsneYEYb8jxHCIGzjna7Q54XhKEkCBSt1iK1Wp20FpPnBVmW4b1Ha43Wpp8KZ26nMRzJfqU6kiSh2+1y6tQp6vUaUE6zFII0TQkCQZYVBIEiCAKcc0RRRBwnCBH0iMozNHq5OQxJ50FAURTEcYwKFGma0hhvoLUjjkOsdWijCcMAIUBrjVIS7z2dTgchBO1OhyzLEKLsXw6Wn5POgxQURYFUiiLPcdZy6NBhnn9+R0mwyBFSsm7dOi699FJefvkfnDjxAd47LrnkEm655RZqtRoAUi5Hn5LaciJLSAEeoihCCAijEKUUU1NT1Ot1Xnnln7x37H1ef32eNWvWct5553Ps2Hu89NJLjI2NMTMzQxLHMFBon40ybvlKUlW3x+ERvV+F5557kbm5OcZGx7jnnntIawlzc7/juuu+y223bSyDnMc6h3UWpdTH1BxcHAbP/y+SRV4AglBFvPPOf3j00d/wr/37GW80MNawfv3VbNp0JxMT40gEzlmkUnjvMMYShiFFUVZ7FCmE+OhKJoQoj5dNspeTeZ5hcdTiMrcAnAVjHcePf8Cmu+7qDQJbHp9j7dpJvPdYY1BhCN7hvEMIiTEeIarKLwtJa00URdD31WFysgcpJXEvt7IswxqHDMr+eq3GXZs24byn0+2yuLhIq7WIMQajDd12GyhV0toghEQpiCKJs2BtaTlFUcDAdC+fZK9wlFJorSlM+SBjy+lSCuojI+R5jnMWaw3PPvssJ0+exHtPkiYEMkBrgzEW5zxvvXWU7dt3sG3bn9n2p23Mz88TRRFaa7z3/Zxd/nRT5qTH8t/mSWppnSROekpKhICdO//K7OzD3HTTTbz897/xwYfHeeCB+5mZ+TZJHBNGEUYbjLUsLLzJ7OwjvP32UdI0RheatFZj8+ZNbNjwvXK4oZXsQYiAkRUrSOIEYwxFUeAdzM8f4umnnub6669n8+bNXHTRRYyOjvLww49w4MABQhXijEGFivn5g/zql79mcvUa7rvvPu786Z1s2HADxjiefPL37Nu37yNjDkdSQFHkGG36NpLWEow1vPDCDpIkYePGW1GB4Paf3M6qVatAeHbu3Ek36+Kcw2jD/v37aYyPc//9D3Dtd67l+zfeyM0338zll19Gt9Nl185dOOf6djQcSQ9RFJPECfT2kceOHWPLljm2b/8L37jy6zQaDbQxnHPOBDfcsIHG2Bi7d+/mmWf+wMKRN3HeMTPzLe6+ezMrvhIhA0mn02b15GquuupKAGppHeF7juKH3QX1fNYZh3dlzuzZs5tXX93L2rVr8N5Rr8eEKuD48fc5ceJDLrzwAq655hpe2/caj/32MQ4fPszU1BSXXXYxzkIUBYzURzC6QAhwznHuV8/FOwdCYK0drnCqRLbGYp0liiIWFxex1pKmKc1mk5UrVwLlYFprsizr+143y1gxMkIYhv0YYxxSBjSbJ3noFw/R7Xb5+YMPMrlmEvAUuhhOydLfNMYalCo3vGEYkiQJURQxMTHeN2RjDEEQMDo6SpqmpGnKeKOBc45ut4vvmXq1AT548CBH3jzC1NQU565eTZHndDptgiAYjiSUPhlFEVKWK0QURQRBQLvdRgiJEIIwDNFaY235CeG9p91u91eTcjEofdcYw9Gjb/HUU08zPT3NHXfcgZQCFYaEqlR8qOmuUBTlbltKSb1e76sXx3HfiJVS/eq01iKl7JtzFe+9J8tytmx5nHa7w733/oyJRgNdaAIVYI1GqrNQkp6aaZqilOp/CTpXLmlBEEBv+RRCkGVZ/7xCpTbAE088wYH9B9i4cWO/L1AKKQSBCpBCDq+k1hohRD8n6RG0ttrVFERR1CsKg5SyHzv4Qnmes2vXLt5449/8+Ee3ct75azDG452j1WxyeOEQ69dfjXVueJLe+3J33hvcD6yxFSkp5ceO+0tcL3bHjh1s3bqV6elvcsUVX6PVajE5OcmRwwu8++67/PAHNzJ18cVYtwwLqh4+iGpqRc/HlFL9vqqgKvLe+76C1Uvt2bOH2dlZWq0WznpUWO7ytdYEUrJq5Ur+uHUrKlQEKjgzyerSUpIVlr5AFT+o7mBMRXjv3r0sLCxAT/3x8QnyPKfZbJImKRecv47p6WlUWL7UWZMcvG2QxOA5A6oPFo4xBudcv1BKT5V0swzhBWlSK7+eBaXZ9+8cEhWRpS8wSN57/5GNwiCq6hdClIYtA+IoJgzD8hkeTGHKGOecrx5WJXqFT1JmEBWBpUryGeoO9lfHVf7ierESTG4IlOJ/itaSgdPoDdgAAAAASUVORK5CYII=;" vertex="1" parent="1">
          <mxGeometry x="149" y="141" width="41" height="39" as="geometry" />
        </mxCell>
        <mxCell id="eJ2LpnvItJs-uyWbNVWC-39" value="" style="shape=image;verticalLabelPosition=bottom;labelBackgroundColor=default;verticalAlign=top;aspect=fixed;imageAspect=0;image=data:image/png,iVBORw0KGgoAAAANSUhEUgAAACIAAAAnCAYAAABqippxAAAAAXNSR0IArs4c6QAAAARnQU1BAACxjwv8YQUAAAAJcEhZcwAADsMAAA7DAcdvqGQAAAc+SURBVFhHrZhLjBzFGcd/VdVdPbOznrG97OIQyZjYIRIxBDuRwgECPhgUIllKfCEXIiLxiEROQQrXBIh8JMQ5EolwQIoTWSGKLUtxhIhivEjY+GRi+SnZBiz5sePZmenpqvpyqOne8ZBlZwl/qben6/HVv75n1aqiKATAGINSihIiUn2LhGGrRgIEAWPKkWXf0lyQ+FcEUCilUQqCBx88SmkAjFEoBc4FVFEUonXsGEcIgohgTNmvPkM2hFD1x+/xOdxCJEgkqYdylI4b1VprlFpaIIQwoom4oxAUSDkOYnfUmFYGUEhQFIWnGDi8DzgX0FoT5ZeyIomSgDalLG4lorUmSZLq2xiD0aZiv4QosGyWUO5MCJUZRzEkoCKZcXlKKZREqv8XShHlO/qAVJoLQVBKV/1xzK1m1l8Cj0ro0hPboibiU7aNE6hkSEQl8MuFjETVksOPa6bqXY7larC8ZtUIic+inLf8iBGEEFhcXCSEuLuiKKrfJZRS+KLAFwUIiBdEoN/PyfO8isBy7LiZJnLWPM/RWpOmKb1eD2MM1tqlUA9CMRhgkhhlKE0IQlEU2Jqtoms5iMjKRMrFRIRut0uWZRhjOH36NCdOnODkyZNopZieajA3dzubN2/h/IULXDh/nl6vR71e55nnnmXtuta46AoisrJplFJ47ymKAhEhTVO01szMzLB+Zj0nTnzIW2+9xb59+/jPqVPMzc3hnePgwYMcPXqUZrNJlmWf40MRKxJhWIestaxZs4YQAv1+n1arxY5HHuGpp37KA999gHa7w6Y7N3HXlrv4+JNP2LhxI6/85hWeee4Z6lO1cZEVZFjTJiIiIjjn6PV6Vdp2zuG9sHPno9x737ew1nL06Dwv/+plDh06xNatW7n3vntx3tHtdVeMyhV9RETI8xxrLUVRAJBlGSEEQhC0Mly+dInfvvoq/zh8mPXr1vHwww/z9NNPM7dhDucdqU1BBK2rkl3JLv1vosxqrYUhAYZRpJQiSQzawFfuuIPdu3ezbdv9dBY7rJ+Z4fYNG/DeY7TBu1CF7jjKNKBXVNmwGOZ5jnOOLMuw1uK9R4bHAO8dX9u8mU133km/3+XYsQ9455138C4SUUQZ5Z7Lt/exBk3sIyEEarUaxhhEBO991eecI3jPH15/nSNHjrB9+3aOHPk3Bw8ciIcoLyTG4F1cXSRW636/4Pz5CyzcaCMyYdSUGdB7j/c+Lh4Cg8GAwWDAG398g8P/PMyePXt47LHvo5Tm4sWLvPnmm3S7vagBCSDgfeDGQpv9+//Ki798kffeew/vw2REGPqFc44kSbDWkqYpIQSOHz/OsWPH+dEPd3P/9m089OD3eO7Zn3HmzFn+fuAAp0+fRg15RCKebneRY8c+4PqN62RZRp4PJiNSFEVM10On7XQ6LCws8OmVT9m7dy8Ajz76GDcXFvnqxjvYsuXrzMzcxs32TV577Xd89NEper0eN292kADNZpPvfHs7P3/++RjirpiMiLWW6elpOp0OeZ7TbDY5deoUL/36Jay15HnOyZMnWbO2wdUr1+n3+9TrdW6bncV7x969v8d7WOz2EVFMNxo8/oPH2bVrF63WWmxql88jozHe7XZpNBpLoaY1V69e5dq1a+R5Tr+Xs2njJtbPzHDj+nXyPKfdblM4x4bbN0Rn1AnNVpMkhW6vwBUDzpw9Q6vVYnb2NlQIQVYK4TJSvPdVrQkhHo4hlvxer0diEmxmY8pQ0FlYZLHbpdVah9aGJFVcuXKN+fmjvPuvd5mfn+cnTz7JEz9+YmXTiMTrweihehRFUVC4gszWSNMEFPS7i3QW2lib0GquwRhFauO8devW8uBDD9JqtcjznMI5BoMJfGR0cWtt9Xv0rbVGG4XSGkSo1es0phuYxIACLw4fAkECWU3TmKrTmJpCJJBllmIwQdSUvhJCqIqfc67SFIA2GkEIBNAKtEaZeGkJEgjeUxQ53g9PdiqgjcJoRZoYTKJXJsKQzPi79JlRMqWWRAQfIilbsyRpAsiwcsf7kkjAB49IIE3SyYgwYiKtdbx4GXPLhWycrFZq+MRjQ5bVqiQoIvS6PbrdbiQ86cGoJFH5w8jzvxy4xCjxMsK8jwv74JEg1OtTNKYbk1XfSTA+bvRbKYVzDgBjNNamZFmGNpqpqTppOqGPfBGUJipRVu7yXxKxmkezOreKorcalOYqI6t0bhGJRViIiVEp6vU6zrnVE5HhYWg5jJuobEuShDhNMRhEM2VZRpIk1Gr2ixFZDuMkRh253e7w9tt/Y/799zl79iyXLl3m7m/czezsLP1+vnoinxcln4dz587x531/4oUXfsH+/X/h48uX2LFjB1u33hMz9nLVdzmUw1dLpt/vc+jQIS5f/piFhRvs3LmTe+75JkmSkiRm9URGjwKrwegG2u02aZpgTEpReKxNJjPNaNaM95mYHUf7VkKpwU6nQ7PZpCjiubfRqNHr9fgvfTr2XW4tImsAAAAASUVORK5CYII=;" vertex="1" parent="1">
          <mxGeometry x="141" y="225.5" width="34" height="39" as="geometry" />
        </mxCell>
        <mxCell id="eJ2LpnvItJs-uyWbNVWC-40" value="" style="shape=image;verticalLabelPosition=bottom;labelBackgroundColor=default;verticalAlign=top;aspect=fixed;imageAspect=0;image=data:image/png,iVBORw0KGgoAAAANSUhEUgAAACEAAAAcCAYAAADvANYcAAAAAXNSR0IArs4c6QAAAARnQU1BAACxjwv8YQUAAAAJcEhZcwAADsMAAA7DAcdvqGQAAAXnSURBVEhLxZZNbFTXGYaf83fnx2ObvyZV8QpXiUqyQVYSkdqKS4lYlLBlWSpSqdkkUtJlFCk02TXrKriu1AgFyN8CqaRNJQjJJgo1tA5YZUVS22DAxuCZO77n3nvO6eLODOO/kipFfaWrOffMN9+89/2+835XhBAC/2fI1RvdaPPr5vkgOIv1lAghIIRYvf3AsEYJ7z1CCLIsI0kSANI07XyfZTkALncrlGqvXe7w3nfivw3WkJBSdhJKKcnzvKNKkVwQXCDPHKK17r4IkNnsvyrbinK0y5Bl95IIIXDOcfnyZarVGmmaQQjMzszw7N69XLx4kfn5BbRWzM8v8NRTTzL4w8EVj3e/8urum3agMYY0TQkhoLVmaanOuXOfMzMzw9z1OTZt3sTmTZsYGRnh2vXr/GF8HK01i4uLDAxsZ/CRQay1RFG0Iu+GCPeB9z54H8Lysg0nT74fnnnmJ2Hvs/vC2bPnwuLtu2Hmm5nw8ksvh7d/93ZwmQ8u8yFuNEOj0ej8/n5Yczq6S2KtpVqtImWhbb3e5K23fsvk5FfcubPIkdePMP77Mer1BmNjR+nr68flOVJLtLkn8v3KsaYxu4NrtRpCCNI0I8sczTjmhV+9wLZt21haWuLDDz5gaWmJX7/yCn19fQTvUVohhMBau27O9bCCRFuUPM87x8w5hxBgjOLh73+PnlqNn+7Zw44dOzj76afs/9l+nnjyCaRUaKMRQuK9p1Qq4b3rTr8hVpAQQnSaUSmFtRalFMYYvHfcvXuXWq3Cvn372Lx5C6VSiX9eucL0v6bJ0hTnCo8xkcF7j5QKvoXLrluO3OWEEDAmwtqMEEBKRX9/P9Za/jH5d+K4wdatW7hwYYJP/voJuSv8JM8yUpshpewYW/vh2urmeZEfwHu3lgSAksXTE4pyWGuJ4ybWWhYXFzl69CgHDx5kZHiESqXKRx9+xGeffY4UAm0MUiqSJMUY3eqngqCUkjRNUUoRQiBJEpaX7eqeKD6dgzheRkhBtVoGoFKuEILg1Vdfo6enxq5du3jxpRd5evdupJScOH6cry5dwlpLmqZobcjzQBQZlNR4VyjhXKFOmuZoHRWnr5tEu4mVElSrFZxzZFlGZCLSLOOdP76DtZbnn/8l27f/gCiKOHDgAI88+ig3b95kamqKLE0plUpoLVDq3qnInWspIslzR/CBhfkFkmW70jHpOtNpmuG9JzIR9UaDN954kzNnzrB1yxa0VmRZThRpqtUqWZpireXYsWN8fPo0Pz90iNE9owhRDLzJyUn+/PFfiJsxhw8fZnx8nNnZWfr7+xkeHl5/lNNqGJBIKbh1a4GrV69y69Ytrs1eY3R0lMHBQYL33JibY3p6mkYjptmMmbtxg6GhIX60cydCQrlc4r333ufdd0/gvcNow9DQECA4deoUvb21jQeYUgopJfV6g0ql0hrxEmMUzTgh0oYQfOEJ5RIIiquFPA+E4DFGMTV1hRPHT3LhwgRP/3g3z+1/jscff4wjv3mT0386vboniixCCPI8J0kSyuUSWiucyzo9UypF5C5DG43SCmtTEJAlGS5zeBeAgDGKLPMMDAzQ39+P857h4REeeuhhmsspWhXdsOaIts3KGNMxqhAClUoVKQsWSkvK1TJCCYQUKF2kkVqCACEhBE+eF+YVgiduNkjTlNsLt+nr6wM8aWpRWq4l0TYWIUThFV177UFGlwsqXdh1e92eHcZolCrigw80mzG9vb3s3PlYS/FAtadCCH4tCbrK0t2z7b317rvj2uvQeuVTSiCVJPiAkpLrc3MIKalWKx0DW5dEG6v/eCN0x3Wvi2Yu1o24Qe5yrE3wnaFYKP0fSXwXCCFQSpKmGX87f547i3doxjGXLk3y9Tdf88UXXzIxMUGSJBv7xHdFCAHnHPX6EmNj48RxTLJssdZy6BeHOP/leaanp+mp9Tw4ErSmZZIkGGNaHmOwNqVcjojjhEq5jLWrBtj/Ct3NKYSgVCohZfHWrrVmuZlQrZYREqxN+DeF95FbzASgMAAAAABJRU5ErkJggg==;" vertex="1" parent="1">
          <mxGeometry x="207" y="333.8" width="33" height="28" as="geometry" />
        </mxCell>
        <mxCell id="eJ2LpnvItJs-uyWbNVWC-41" value="&lt;font style=&quot;font-size: 18px;&quot;&gt;-1&lt;/font&gt;" style="text;html=1;align=center;verticalAlign=middle;resizable=0;points=[];autosize=1;strokeColor=none;fillColor=none;" vertex="1" parent="1">
          <mxGeometry x="270" y="357.8" width="40" height="40" as="geometry" />
        </mxCell>
        <mxCell id="eJ2LpnvItJs-uyWbNVWC-46" value="" style="shape=image;verticalLabelPosition=bottom;labelBackgroundColor=default;verticalAlign=top;aspect=fixed;imageAspect=0;image=data:image/png,iVBORw0KGgoAAAANSUhEUgAAADAAAAAoCAYAAAC4h3lxAAAAAXNSR0IArs4c6QAAAARnQU1BAACxjwv8YQUAAAAJcEhZcwAADsMAAA7DAcdvqGQAAA67SURBVFhHnZlbjF1Xecd/67Iv5zJnZmxnbJLUjpMAVRyHixwgUiBSaYCKJrwUpEJIJaQ8EESkIhESRUVR26dy6UNDiIScC3JbBK8h4EqmiJDgUCJInlqDCCaTsWfsmbHnXPZl3fqw9t4zNm6hXdLR2fusffmu/+//fUfYug7FrGA4NwdS4IxBCEEIAYAQAkppkAIfAgIQcQsBIER3Xfz2cU9IhJLxQiAEsNaidvwm5fbx71shBMSOd7XHwtZ1kFLhnEVKGV8sBM5ZvPMorRBCdgp455BCRIkApfQlD7x0CawP3b5SAiHAGIP3nizLCCFgrSVJkstv/oOWBLDGoNMUayyT8RhrDVIqhBQ46wCiAFKitUYphVI6eqbZCyEKunO153VdU5YFzkXvaK2RUnb7V1b+D1sSQGlNOStIs4z+oM94PIZGMaALhRBCJ0TzAwDebyvpnI3nQiCEQApBv5/T7/WRMioqmj1rLSEEtI6G+P8sEZwPIQQ2NzeQUrGwsABSsHZ2ldHcECEkLnj6gwHGGEIIJEpjjcF5TwieoijI85w0TQkhdLFd1YaqqqlrQ3/QJ88zqqoEIMsylFI451BKdUr9X5eoZrMghCRJE86ePcvS0hJSa/7xy1/h5z//OXv37WVp714WFhcZjUbkeYYUkulkwnQypSxLptMpWZaRpilKa7RShBCorWU8mSGEYH40ojYVZ8+eZTqdsLCwwP79+zly5Ag333zzHyT8lUJOhOCCt47pZMLcwjzeOrz3XLywxYNf+AKnfnmKwXDYJJzHOotE4J3FGkdokhTA+0DwgSRJ0IkGoSiNIQRPnmd475FSkiSaqiqpqoqPfexj3HvvvQyHwysK2K42fJWSDfAFQCBsXQYpJUKKDhJBMt4as7y8zJNPP8Xp35ymqirKsgBiyKQ64S1vfgtrZ9fYvXs3hw4dYmlpL6+9dpr18+sMhgOM8witKYoZu3ctYqzh5MmThOBJEs3q6ip33XUXDz30EEmSdIK3gFDXNXVdkyQJSZIgpWzCMxCCiwp4b0KLIsZEnJZSEwJUVcWJEyf4/r8dZ2XlDJPxFs4ZRIDduxZ54LMPsP/aP6LXHzAazaOVpqoMzjqKsiLJMipToxNNliU451hfX+db3/pXnn/+R3jvue222/jc5z5Hr9f7HSg1xlJVNWmaoPXOPGkVAAkC6zy2QZeqjskphCDLMu68807edsvb2NjciOEjJHneoygqnnn6GdI0Zc++fbE2AHmeMdw1x1VX72E4HLBr9y6GwwH9Xp/5+TkOHryO++67jw9/+MNsbGwwmUzp9foIIfHe473vQklrTZblnfUv9RCAQDofCB600iRJSi/vIcWl1fJTn/oUH/nIR0h0SpblXLy4xYULFzn929d5+OFHOLdyhqqq4kuk4OL5TVxp0akkhBj3UoG1AWs9i4uL3H777XgfsMaytTVGilhECZfGfwi+g+6dVd6HiOJSSQUIQogbDUGIGC6jVQA+8YlPcOu73sWZM6tMJ1MgFrlf/upXfPvb3wYhMNZQ1yXz8yOkFJjKoLVEqvhMKUA1tWDPnj3ccccdbG2N0VrHHAR8Y9koA43gMSdCiMfeewgCISTSOU9d11RVhTGGuq6x1uK976w6K2YMB0M+/pcf56abDjE3N0IrHa0APPn00xz7l39mfXODqjYEAS54hBJIKXDN86QSSCXQWnPNNddy+PAtSNVSlxgJrcA7V2tY74nXBNEoKRDOueBcTAitI69xzhFCoCybopPnOB9d+ZMXfsLf/+3fkWgNBKQSGGPIsownjx5lYXEBrROSRCN1rAchhIZjAQiMiRC8trbG1tYW+960j9Fo1NCTmKQAzsV3KqW7HGuju1VWRg0Fqik+3nuSJCFNY7w760nTFJ2kaJVw65Fb+dCH/ow0zdBak+gUrTV1VfL4449TFmUUXgmCcwhC5FUihmkUzFFVFUtLS9x8+BCLi7uQUnVkbxttwNpozFZwIaLwzgecD8j2QuccdV1jjKEsy442LO5awNmAFJJEJ+gk5S8++lFuuPFGlEpQWrO+voFOUn78wgscffIozlkIIVrce4Kz8e2A97GojUYjnHfMZsUOq18aOlJItFbduZAxcUVDhr0LqEcfffTR7QLRVjyHc64JKYnW0XqhCfrBcMiePXtYXVvFE6GvqmqkFJw5s8K111zNwRveHE0lFUJG70ZjCWxT7SMrFYQQK2yrQOst7yMKCiEQCKKIgRAE1sYYkiEEjDGdxZVS9Pt9er0eUm5rP51McNaiE413jre/4x3c88lPsrS0RECwunaONI9044mvf50f//sPYqJ5D852IRFDJKKbtQaI1CMasBF8R0K37La1PoB1FuvivR3gt5nfMsP4m6csS7yDPO+hE93RgOEg59Zb38GRI0eYzaZcd90B0iRlMpmwsnKGL3/lK7z805+C2jbCzhV89IhU230BISKNDzSg0Yae2KGQIwQfDSGbHGi7MBr30RCzWBUjgUtThRRQVSU60Rjr2dqa8v4/eT+33XYbxhgGgz5lWSKVpK5rvvGNb/DKyy9DAxCtnLIRXEoZE9IFvPvdGtDKcml+xN9UA9GxoVGyI0wtEkkZkWAw6JEmCm8d1hq00qSpIhCYTCbs3XcV999/PzfccAObmxfI87zBdcvy8jKvvvJKKxkAsfcJJEn0tHMeay3WxbwIISAFSAlaKaRUsaAGTwv3MWdF5G3eR5e0WkbN4ydNk/h7CDhrUVKSZRnGBYQSzC8uUNeW6w9ez+c//yDXXXeAqqoYDod45zl48Dre+c53diXVt3Ao2h65LWLbMsTQaKwvAko2lm7uQ8RnRHQKyG33bH9aBehwON4QK2JkqUpK8jxr4hj6/R7vfve7OXjwIOfPn+etf/xWHnnkEQ4dOtRlX2QLUfgWlZJEkWUpSaIi7WiEFw2VkW2oyBjCUmx7prnmUpa38xtivyqkoDY2utE78ixDCggu1odiVjGbTnnppZ+ytTVmz56r+PSn72ff1dcQLsuty5eUEetbKP+frgM6odslhEB6v01NW86xTepEx42SLEUIGS2lBNY4vLMoKVh+/XW+9A9f4renX2d9/QIPPPDXHLrl7RjjEEqBjEltbYTT0IxSYmLHT1EUhIa+WBvRpygKqqra1uAS2Zpz51xotbqS9u0LWrdOpyUhBIbDHgCn/vMUj/3TY7z66qv4EHj44Yf5wJ0fiPBIwNi6sbK+xNNCCHzTd7RLiGgwY0wHKq3C7f7OFeIAoal0VxCeHTc57/A+kGUZ/V6PEODMylm+9rWv8fLLLyOE4J577uE973lPZ80QAjpJLhmbtNalCR/nHKJJ5MlkQpqmDAYDaARskelK8gnRwOiVVqt1XdeRVqhtC1pnOXfuPI899hgvvvAitqnM9913H4N+n16/hxACU9cUsxnOR0LWWKyzalVVlyg3HA47VrCzR75c+FY2WjZ6pdXe1Lp/Z6s3mUw5duwYPzjxA6RS3PG+9/HAZz/LbDolSdNucpDneeQ7IlraOddxrp3HKysrPPHEE6yurjZTPxVrQ+Ot1hOXy8b/pkC7Lh86KSV46eRJjh8/zmA4YN/evTz44IO86eqrSdMUGh7vfWAynUQ3N2PE1gDWxQROkoS6rjl+/DgnTpzAGNMp1RW13zMAvuJu+6I29uILYyX8xS9e4Tvf+Q7nzp1j967dfOYzn2Fubo40TTteU9c1QgjyPI+50zxHNrwo+NAd/+b0aX74wx+y/8ABFnctdmjVDspcY/k27HaGDy0bbZdvpgLtxbTKBEFV1Zw8+RJf/Jsv8h8/+xn79+/nnk/ew5/eeScBIi32ITbxQmCNQUmFVknkPs3He98ANDhrOX/uHKurq/R7PSbjCUrKKLi1OGsJzhEamS7PBSKv2hFPTTGpawts96laK1577TRHjx5l5cwKc3ND7r77bu66+8+RuoVGIlv1gSzPAKhrg5aqKfAhciLv0SpOp8+trfGTF15ECcHbDh9mfm6EFJLgorejAWLrCr4bIu9csk0U7z1lWeFdHCjRvNM1he6Zp5/hjeU3WFhY4KabbuKDH/wg586tc/78BnVds7G+zoULFynLks3NTcbjMbPZjDMrZzj9m9MsLy+zublBWZa89utf88Lzz/PNZ77JU08+SaITDh06FEOuCdc0y0CKOOpvKExL5lp5QwiIoiiClApjYmL1e32k6ugLZVHx3Pe+x7Fjx1heXmY4HLB7127mF+Y5cOAAWZZRzgq01uR5TqI1xlpm0ymz2YyqqphOJwwGfa659hqmkyn/deoUG+vrsdcIgcWFBb761a9y/fXXRxImtv9A8d4RAKVVJxPQkL+mEsd2UJFlcbQ3Hk8Z9AcYa3jqqaf47rPfxVhDVVU463DeURQFi4uLJElCVZQIiNPpZmQOkKQpxWzG0t6r8M5x4cKFmOBNvtSmptfrsbCwyNcff5xdu2Nzj4jDY2cdQgqEVKgdvTGNB4SQyKIo6PVysixhPJ5RzKpuRvnss8/y3HPPMStmFEWBMZaiLHHOMRqNGI8nbG5sYpuBQBwAlxRl2Z0nScLZM2dZW1uLxc0ayqLENt1WkiS8+cYbybIMa5o/R0Kc2Blr8C42Vd775q+pJoyaCZ4cDAaEAFUVN7MsI89TTv3yFC+++CJlUaKkYjweY+qaXtOw5HlOr5d3baZoRjNpmtLLc7IsQyuFMYY0TekP+jjvkFLRH/SZm5tjNBrR7w84fMthsiyjrmt800puQ2+s3HVdN+Su7vAgeGIOVFUNCObn5zDGsbW1xUMPPcQbb7wRtRQyWjONBGs2naETTa/Xx3tHVZZIBHkvJ88jydNKIZWiqkqyLEVKwcWLF9FKk/dyrHUUxYzRaMS99/4V733v7VRVRZ7nsfI63wkvpcQ4R1XFUXueZ4RWgchGZTMFcxhjyfOc55//UWOhPtZY8l60qhCiq7jeh9h4+9D9n6YabpMkGikVzsZQSNOkGxLQVHglFVmWdbFfFDN6vdhXa63QSYp3NlJoKajreJymqmlN4b8BD2u04OGoVB8AAAAASUVORK5CYII=;" vertex="1" parent="1">
          <mxGeometry x="386.64" y="191.7" width="63.36" height="52.8" as="geometry" />
        </mxCell>
        <mxCell id="eJ2LpnvItJs-uyWbNVWC-47" value="" style="shape=image;verticalLabelPosition=bottom;labelBackgroundColor=default;verticalAlign=top;aspect=fixed;imageAspect=0;image=data:image/png,iVBORw0KGgoAAAANSUhEUgAAAOEAAAArCAYAAACOwO+oAAAAAXNSR0IArs4c6QAAAARnQU1BAACxjwv8YQUAAAAJcEhZcwAADsMAAA7DAcdvqGQAAD14SURBVHhevb13uF1lnej/eVfd5ZSckpAGSUgiBJJAENIAKcKgYPeiF1CccRzbc4e546jIqKOOM3dGR3F0vE5xruNvcC44IChFCIQiJYEESKWkkAAJKSch5ZRdVnvvH9/3XXudnZMQy/y+z7NPWXuVt3x7WyrLMs1vCVprlFIAJEmC1nJLz/PkeCbfZ1lKlmU4joNSDlpnADiOC+Z6zLX/ZeCofHxFsMeUUvlcxgKtNQrgyFv81lAc17HGYEFrTaozXNc9rvNpm6eFNElQgON5aK1J4hjPlb3LshTsHsmF+R4V79W+pvb+Yz3vaKC1RhdOs/e1OOM4TvH0I0FrsjTFcb18jBbntEFzz/ePGFs7KHWM59jxmUuzTJ6pHMEbpY5vrkU4xtN+PShOKMuEuDJDZCCb19oQJx9olmX5Rv+XE2ABdIFxpKk8P8uyo27M7wyKG1T4+4jnHudGCkM7vnMtaK1HPa/92UVkdxw3J8AsS4mbTRqNBrXaCM1mkySO87XMshSts1HjEcR84/Fprcl0luOOvcZxnJzJ2HGP9QHQmRBsjkdKoZSD63q4novrjWZWY41LKdUitHYoEKB9hOMoXM/Ddd3faC/4XRIhdsEdlQ+mnaO4jovreijHyRcoH3Q7Ev4XgOWySskY7Qa6riBZkdseDUl/k0UugjZIhlKtvw3YeyuAtu+OBe1E9EZgmY39OG3MIMsyGYPTknr2uyRNaDabRFFMmiakWYbWcr80EakjxDia0I8JSqEMsXmeNwqZkzQhzVJSw6jHWv/MjBnAcz05qGTslgk4rofjuEeMqf1+WuuWlmO/siiajSZA+51S5pwjh3ZcoH5TddRyJqUUSZqAWQB7TGuNNuNKkwTHLARAZs7HcNosS2WxXBcybWbVBse7oUeBIgEeDewGHeucNMtw7aq/0ZgMIoxStR1Rz7XWKNeRTTWIbMFx3Py8Y4E26ihKGNyxxk2udQjBWEaUS700A9chSRKajQaeuV+WpZRKZXCcfN/SJCVJEzzXw3FF0gAkSYxSCtfggUjF45cOmda5WmfhaERTPD7q/mbNsiwjNaaRMsLB8/w3vJ9Syqy92TpHiE8pI7K0IUZzjb2+NYRj79lYoLRAfuBog7RgdWsLylH5MccdLfnye5nvlRK2IUinBQHaJEL784sIcwRitv9fPI5Zj8LwBTFa3DGKIpRS+L5PkiS52pMmKWmWEQSyaXGc4PvGvrX3SoVxCLQhmaPQqRBWO5Np1GqEYQnlOtRHRgiCANf3RzGfNInl+X7QmgutdcxBjd7y9r1qBzt/Cufm12QalBCCZZpaazKtZRwWlDCW9vtg1NV2orPrfcT5hfuoAupqNVodboc0SVC5piX3SuKYOEnwPQ/P98Cope37jWFw9lg7WPsRFJ7vA5BECV4oTKY+UicIgnx8SqlcAgsuI5Rr4Wh7VzxeVEftgC23pLhRWqG0cAd06+MoB4XCUQ6OcuT7wsdeJxvj5FijHAfHdUf9b78fdS6qZZMYh4pWRqrZiTgqPzbqOOYWBVCGmJNEVJs0TdoQBpIkI00zsiQljVPIII0TdCpqSqNWR6cpOKCVlhVUrQXOHQuOIjXjVa6Dci2qaaJmA4AgCIjjBJ1mJElMs14Hrc2cDdMpQvtcDXLZzxvZtHb+RXXP7rs2BO04Dr5hDF4Q4AdtjKBATMV7ZFmKcxRpXER6QfQUnautImaU4wheFAkw0/lHpxlkmjRNUVqWPI1jsGaO4xgepvN9Ua6D43m4vo/jeWSWKI0pUgS7DkmSiFDQmqjRIE4i4kYTMo3vu2idkmWJGbfYhKK1Z8RxJGqzY6Rp4b72mFZyzH4H4BQHk6YpjtHN7UYVF1Xliq8Q3igW9uuAJeTC/1pboldmn1vPyrQmzTKyoyDYaEIa+xwL2jwrSVLCsITWmmazaeYszw5Cn1KlRBInKBTlUhnHddCp2EqZzlDWFjhiMgYpU+GomPGlaUKaxJQqVZQSYnZ9H0cpkjjGdT2xf9IEDaKajwFjITltiG7/PxaM9X379UmakCSJLFjrpNbf+SFhnmPd04Idn3XyWPXbXmcRH10gvgIoQ8COEiwEyNKMNI7JshTXcXCNdxc0Gk2apblzUGvdUtnbiAAzB8dx8Twf1/NEnc0ySqUSSSo2ruO4OQOHgn1vGLrWGgpMJM0ykkRsWgtKKWPjtsbl2IVXSuUhBW25Y0HtaIfMLtjvCLTWIoGyjCxNzUf0+jRNyIwH82hgGcbRkJR80S2yilRwXVH0xbkg90nijKSZEFZCcMxcM2g2m3i+h+NYNaT9WUbya6MdoCBTZElGlkIcxUBKEIai7qUZQRjmdlAYhoBw1zRp2c3tcHzzPH4Y63xLWEfAGOfa6481phxJC04Sx3GNVDoOD7m5TiklhKUUfhjiej5ZmhFFEWmcGE1KiE0ViL6grJjbmTVUCmiZAmLPQppklEplskxTrlTQGprNCNexklU0uTTNaDYjdKYIfNlX6yMp2vkW8rUqrFe+ynZQ9qSjEaE971gL/puA4ypcz8H1HLzAMx8XL/TwAx/f90XwHm2TjhOE2CwXEidkEISj3PBaZziuS9JM0BnCEAwnHx4eIU2FK8pYhKBbDzB76ihcxyWOItIkxXc90jRFpxqtETUPUTHjOKZWG8FzPbJUYlq+sUmOB37bNTkaKMg9x8cCiwvHGofVrHSWUa+NMDIyTJKIOinfF2LFR4NcVXdBa7I0IUsT/CCgXK3ier6YQoipJIywZY+NeXe7h+a3zKXldFTKIU0yDh8eJAhCXM8jqkdkiTiR7HjEvDJ0Y30kSrRKdCtsp7UIryKtORQW0f5dtBlGEVvxzzFn9BuCgizVJFFCEiXEzZgs1aRJhk5Bp6KrHwuOxjSKoJQiimKCwMfzHBqNBs1mRJJY1YjcARNFEbVaLfewOY4iLJfo7OwyXmDMZgHa/i48zAjKNEtoNhtguLLWIlEB4igiiSLCMESbOJnruTSbTWJj74wFxbkea77H+q64v9YOa7+ftR+PCW24czQoMrkoimnUGzSbTbI0Oaot2Q7WwYVR75M4IU1MOCQVDUrGowAHR9SY/PpcMuXPkn3TGiRIoMgyUY2DMMiFcrPZJAxDXM8hiWOiKCJL09xr6ge+0agEPKMWCxGrnJFlmcRQPU8cPfb7USGKsRZCay1OmeMFe+pY+9/+nTJ/K/FCNZtNCXwWvE8gDhDNaOmQf9eGaGPNwYJdGOteB0gSzcDAALt37SJOYiZNnERvbw9Ro0nfhD7SOCWOE0qlkL17B+jt6cUvic3gGAM/Xx8zlziKaTablCslsjRlpDZCR0cHcRwTBAFRFOH7Po7jyHnVKgN79hI1m0yddpLYnoVNteNun2s7tJ+jrQe6DdrvY6872vmCqQZ5jzIGe8/29bfHreMmy8TMsHPyfL8VynCco96fwjqkRt2zoRDlOKRJbPap1CIybWxLZcMONtZgQYjQEgfGFJBjKToTf4Hv+3i+z7JlyzjlTW9ixsknoxQkcUKWZYKzvkjMNEtyPC2uRfv6FJ2fKssyfdTFt3CkavtfAnb9lZhpLTjG0IBRhq/zBnGper1GkqSUSiW0hvvuW8att95Ks9mkNlIj0xl/+NGP8s4r3oHn+wwODtJsNlm/bh0vvbSNq66+is6uThxXHEZaa2EaWYsIa7UaTz31FC9vfxmlFM2oges6DA0O0t09jjRL6RnXg+u5DAwMEIYhg4ODDAwM8I4rruDshQtzJ4MlEPs7J/7CnIrB9iJkOsPNHSFHuuUtYqRZmjst2s/T2qTp5Srb2GCJrB2s9LFOP1WwNS3xWS+1aAoZyqib7RBHEa4nZoDWGi8IqI+MoLWm0tHR8pbagD1GFVWtLBgxNyy+O6RJChSSTBxo1EVTKZVCkjjB8z0OHjzIt/7uW7zwwgtcf/31nHXWWWjjvPJcj6AcCFHqjMCaGkdZdwwRpibM5X71q1/96lgn2Q2STTjy+7EOFUEfJeZ+NMgJcKxrDHK3gx2jtcOsLTbWfCwkSUIYlkiSmLvvvpt/+7cfs3DhIv7yL79GpjMeeugh+vr6mD9vPspRDA0OceO3v83KlSv5wz/8KBMnniBOFSTTRCGhGAvaqCPr1q3j/958M0+vXs2LL77I1q1bef6553l1xw5eeOEFdu7cydatW3nhhRd55ZVX2LZtGxvWb2DS5MmcffbZpIY7Fzmn/b/lSWxt8Fhzzs+3e2ligUcc08b5ZFRQC9o4y3IiP8qmFhHN/s73RlaoZRMWaMv+LeroaO3nCFDirHKM577RaLBt61YeffQxtmzZgue6lEtlw0wQQi5ca2H0uFr/txiEELFjiDKKYzzPw3M9Fi9ezNDwME8//TQ9vb2ccMIJ+IEvYTrXMVsiubz23pbQiuuiCxk+ACpNU33UidsFlqCUDLvtVK1FcsVNCTCXKiFpnNKoNyiVS8YFLQNLU7EHPNeVRFpHbEHHUcRRTJKmlKslic2lKa4nRm0cxTmnakeS4uRs4kAcJ7iug+u5JlQgm9uMYjzfw/Mc4jjlm9/4Jrfeeit/+81v8LbLLmXT5q0MHR6kFIbMmjWLer3GD//lh6xYsYKvfe1rTJkymZ7ecS01yDw7TVNc1yPLJJsE4OChQ/zbj/4Pjz76KwaHBvFcl/925ZW8593v4eChg4wfPz73hjYaDX5+x8/5j//4Dz7wwQ/w8Y9/nLAc5ili1u7p7OzAcVyGh4byYHqpVCLNMuIootrZSdRsCvf2AuI4wnVdSuVSnlfpui6Dg4Mopejs7qRRa+S5j7V6nY6OClmqGRoeztPIRNJr/NBnZGjEqGAu2mT+BEGAH/gkcSIZNGbdLfLlDMRRZKlI8jQVdc/zRWrZ/F3Xd0ljUVk936Ner1OpVEQQmzk06g2+/e1v8/IrL+O5HiO1YQ4ePMCll1zCpz79aVzHlXE4DiO1GtVqB9rak44rCddGY8oy8YwXbVaLL44rkjJLM/xAVEyt4VOf+iSlUpkbbriBnnHjcE1UIc0SYc6uOIWU2SOnEJdsMYEWk3S/8pWvjCkJi2Djg0cQocJIH4iaMUNDQ8SROCL8IEChaDYahOWQer3Bzh07OXToIL09vSilGBkeIQhD8SBmGeVyiSwVYsqSLEdoz5f0KGHEolpkmcl5lKGhjFEN4HnCLeMolo32PJQrXNhzXRr1Jrt27eLpp5/mmWefYe68eUybMYNx3eOYOnUqEyZMgCzjicef4M677uRTn/wUp8+dS1dXZ55Vky+DMjFTV6EziKOENM3wfZ85c+awY8cO4iiiXm/w6o4dLF60iFNPOZVKuUK5XEEph1KpzFlnncWePXvJsowLLr6APbv38IMf/IBf3nMv9913H2vXrmXt2nXMmjWL++69j7+/8Ts8/tjj3H3P3dz60/9keGiYs85+M3t372H58gf5/ve/zyMPP8LUKVMZ3z8epQQpcSAMQ3w/II3FAZEZlc3zfKIoZv2GDdx443d48MEH+clPbuLuO+/i7rvu4pyzz+HmW27h3378Y+668y5uvvlmTj31VMZPmEAcJwRBIFUMjovjFqW4FkmnJbanEXe/EKYgq2Ww2gh5z/dIEwnhgFwXRTFRs8n3/uEf+OlPf8rVV1/Dtddey0UXXojWmltvu5Xu7nHMnTcPgHq9QaVSpV6vc+jQYcqVCsp1SGOTWCBuSSMFRWAq5RBFMUmS5oRkCVYpaDTqANy/bBlJmnLqqafkjMUPpULDSsKx6Kp4LCfCr371q18ddVYbCMLJANqloHwPmzdt5sYbv80vfvEL7r77bu644w7Wr19PuVxm9qmzObD/AHfdeSf/8sMfcvfdd+N6Lv19/XR2duIFkt3uGs9hEsc4jovrOsZG0DQaTeq1Oq4r58lzj8x2l802m6/Fve56cn7UEKngeAqVQbVa5dbbbqXZjLjq6qsZ39ePbySC57hs376df/ynfwSQ78ePF45uMjvEOSBrY8MXWkO9XsdzPfGmuS6nnnoqq1atYt/+/TSbTQ4cPMhZb35zHnLxzDPRmmq1ytQTT+Skk04k0zBjxsncc88v2b//dV5++RWuvvoaZs6cRV9PL6+9tpMnVjzBwMAAixcv5sorr8RzXTo7OwmCgJ///BekWcZ73/MexvWOo16vk6TibXZdhyTJiKImge/j+g71ehOdZZTLIb29fcyePYsoinji8Seo1Wu87bK3ceaZZ5JlGbfffjsLFizguuuuo6urizAMqVarJswk2ksaJ4KcrkgBx1EoV5DcImpe6lZwVKRJIiloviT6K1fu5bouUbPJ3ffcwx133MHixYv5wJVXMv3k6fT09tCo1Xlw+UMcOnyYS956KWEYEjVjwlKI63qEQSn3SmJCEcoKkTY8Sk3c0XVcPOMtV8Ykdl2X2bNms/LJlWzcuJEzzziT/vH9+L5v8MPkFx/DFi9qc8pKwlFnjAFvZBPGcUy5XGHvnj089OCDzJ03jyuvvJITp06lo9pBpVqlr69PdOmeHpaeey7Tpk2j3FEmbsSkSSr5eVo2J02MWPccsiQjjmOTuSAZLMI9i4MRcIy0S2LZyCRNWwuvRNU5tP8gf/GVr3DLLbdweHCIsBSyYcMGlj+wnNWrn6ZarTB9+kncf98yfvXor1i4cBFLlyyRnME8kwjSWFQabbi744jqEicJmIwN5Sg6OqporXnuuY24rsvBQ4fo7Oxk3ry5JGmKskZ6ljF92jQmTZwokjQI6erq5JQ3ncJDDz1E1Iy49sPX0tHZQUdHlTPmz2f/vv2sXv0073jHOzn7nHNQyiEsl9i6ZSvr1q/nAx/4AGefcw5pnKKBwA+Mh1KjFJTKgaRpAWHJJ8s0zWaE53lMnDiB3t5+dr62k0ajged6nHf+edxxx8+ZdtJJ/Mn//BPxJPf1US6XUI4iakToTOP6NgvGZJnEca5+SpaJZBS5nuw1aMMshYhdk+anDPP0fB/lislz1513sn7dOj587YdZsmRJHqYAxd69e9m+bTvlSoWZM2eitSbLtIQQfJc0ycR+MylllgizLMNx5ViaSMBfa0krdMw4rGPVMSr15i1bePyxx5g2fTrnLDobhYQvbOqdJTyrftr/2wlSKfVGfscjQduYim4R4sRJE3nb2y9j1qxZRnLVcR2HKVOmGPtDVKBXd+xgyZIlnHvuUirVqiCHlg3QxsGpFDiuGOpRPSLLMirVCn4onCZOYtLExIjSNP8dRxJbjGMJD5QqIb7vUavVwBj/jZEGYRhy9TXX8NZLhVvu3LmT2bNn8653vYvLLruMxYsXs2nTZh5YvpxqpcqcU0+lq6uLOEmMG1o23QZnMelJYpSLfaSUbEjg+5RKIb/3e5dy6aWX4rouL2/fzk9+8hM2rN9AqRzm6Uvlagnclm3r+7KZ43rGGQdBxN333J3bV2EYMmHCBGq1kYLKK3MdGhqi0WiwePES4ihBa/H0KadV8+eFknbo+WLfZqkmDP1clYqihPHj+/nQhz5EHMXc88t7+PKXvsztP/sZCxctpKevB2VS7kaGR0gTseHjJKE2XKM2UmNwcFAI2PfxgwDP94z95OD5Pmma0mhIHq3Y/pH4BuIEMiEO13OFABsx9XqdPXv3MFIbIYkT9u7da7KYfKZNn87Z55zDtu3beW7jc9RGRgDBu7gZUxuuG1tQsmEs2FCEVYOFaDRhGIp2UwgtyvegtaKrsxvX9Xnl5Vd5+aVXiaMEzw+w6m3r/pIFlprUt3aizLLs15eE+U3yBFVo1BvURmpUq1XiOGbFypXs3LGDxYsXM+GEE0iThHt++UseeOB+PvjB/85J00/MjWMv9ET3diAxQdywFKCUyp0zcRSz/aXt3PmLO9mwfgPr1q1jzbNr8s8zzzzDmjVrWLVqFU8++SQbNqxnwvgT6Kh2ABJHssaxHwb09vXT09vDPffcwwknnMCf/umf8uY3v5np06ehtebFF17kP/7jJ3R0dHD55ZfTP76fMAzMZrUcQI5Je9OZzn87TqsypFQx12jNmWecwWOPP06SCPKsW7uW+fPmM378eIPMCVEUSZaH6xKZfFLX9di/fz+vvrqDWq3OggULpFrAc3nh+Rd47rnn8AOfSrnCGfPnc+DAAW666SYqlQq/d+nv4fshfiCEVRtp4HkefugyPFgnasYEoY82KrXrqtyeTpKUOI7p7uqmUW+w67XXeP6FF7j22o9wxeVXCLIZx4PneVIH6IoD56knn+L222/nwMGDTDvpJCrVCiPDw8bmE5U+iWOeevIp1q1bx+YtW9i6ZQsvvPACa9auZWBggEkTJ+cMrdlo4ijFwMAAjz32GNu2beMtb7mAhYsW5aEVpRSrV63ikV/9ilPnnMqixYupVCr4oUcap4SlkhEaQlg6a8UERRYpHFecP0maEIa+ONrSFLQ4lUCuS5KE4eFhXn75FXbv2c2pp85h6tSpOK6YT5JUMDoso9vUUnssTdNfnwizLDMqRcvwVkbP7e7uBuDhhx+mWq3gOA4LFizgtdde40c/+hFz587liiuuIPSDVlzGOFls+ZDjOHi+13KyBB5JlLLtpW1858YbeeaZZ3n2mTWsXv00q1atZvVq+Tz79NOsXr2atWvW8NJLL3HKKadw8owZhOUycRSJdKyWiOKEvXv28NquXezYsYOtW7YwafJk5syZQ70uEnzb9m08uPxBevt6ueTSS+jr60OhSNJUbDkFWZbgeb5k6xsVRymHLM0IQh/HpDs5xt5zXIfT5sxh5ZNP0mw0OHT4EJnOWLhoIZnORCKYEIvvByhHvMme5xNHCWvWrGHbtm2cccaZzJo1k1/eczc7d+6kr6+XdevWs3dgL+eeey7r16/n3l/eyzXXfIjZs9+E57sksTi5bPjG9RyGh+p4nqxzHMeEoU8UiTMijlOajSZBEOJ5PiefPJNVq1azb2AfWsMZZ5zBhPETcqkcBKLWxpHY8w888AA/+tH/wXU9zj7nnNw+ssnRImEybr7lFn56yy08/tjjPProo6xcKcSbJhlLl55LKSzhuA7NRkS5o8SGdc+xZctWGo0mr7/+OuvXrWfFihUsX76cZcvu46WXXuLAgQOcMGEC5593vniOk5QkSQjCgOFhkY5KKYNr4uFVysFxxcGYpeJpDkqB/G087dapFCcJSRLT3d3Ftm3buH/Z/bztbZfxpjmziJsxfmDSE42wskRofxcJMbMlffmRY0HhLG3z8JSS5OZM7Dmb7jVx0iTe8pbz2btnL7/61a84fPgwG9avZ/u2bbz14ovp7u42gzE31bB//36eWrWKHTt24PueGPZJgnIUaZzSbDaZNm0an/nMn/HZz32Wz372s3zuc5/l+us/zxe+8AW+/KUv88U//yJf/Yuv8Bdf+jL/87o/Yd7ceXKfKCb0Qxwc0kQWvK9/PJVKhVqtRpJmdHV1ywZpKasSY92hZ1wP1UpVUurSlFIlzJOrk9TWnpm1UJJV32w2aTal5UMURTiOpDX5vsecuXP4yLXX0tPbi1IO/X3jyVJNEIR0VDsplyvS28Wsi2fKvU4//XRJlcu05DCGPj/72e34QcDV13yIUrlErVZnz94B1q5dhwYWL1mCH7qS/pelJIlUGix/8EG2bX2FcrlCtVrK93XV6md45JFHqNUbub2GCeRv3bqV2sgI3d3dbN68maefeQYvdMiM+z2KY+oNSc1TDlx08YV86lOfYum5SwhDUUMr1QpeIDagAlOpkNI/fjzXfuQjXPuRP+Cqq67m+s9/gUsvvZQs04zUarkz5+WXduB5Pq8fOMDg4CBxkrBp02Y2bNjA9pdfpl6ri9lgzZFyiDIx0SAIJMwFuI4jzAON48j/IDYyyP4HQWCkpgk3OCIp41gydcrlMvV6naGhIfr7+zh48BBpJHOKojjXunJPehvxWXDMWPJgvT3Jis2i+MzSVguEKI7zvEbhIsqokOL27ursxHEc7lt2H+PGict/1apVHB4c5CPXXkv3uHFGz1d5pcRDDz/M5z//eXzPY978+UKIRgqmccqhw4fp6+/l9DNOZ87pczht7hxOn386c+fPZe78uZw27zROm3c6c+aa36ecRnd/N7UhyY4JSqGoFMqh3mjgOC579uzlgQeWU6/Xedc738VJJ55Ivd5Aa83+/a+z/IHldHR0cuFFF9HV1U25XKI+Us9DJVEUGXVJ5iGST9KYdJaB0lQ7ysRRYjYUBvYO8NJL23hy5ZO8613v5oMf/CBhWCIsBRKTSjV+4BFFUt0eBD5xFBN4UnS8fdt2arURdu/eI565BQu4/B2Xs3XrNrZs2cqBg4d45dVXmTlzJpdceokgkKuoj9RRymHVqlX8/Xf+nrVr17B06VIhhDRhzdo1fPzjH6deG2Hx4sUoNJVKhWbUZHBwkO98+1ucf/55lMKQgYG97N69i4XnLKSzs0PKfIA4SejorBDFEeP7+1m4eCFz584lTRI6ujrANGFKEnFeuJ5DT08vS5Yu5ZxzFjJ//nwWL17MaXNO47TTTiMIfDKtCQPxbg4M7KVarfLUKlFhP/GJT3DdH/8xF118MRdecAFLly6lVqvx2OOPs2DBmbztsssIw4A0TRkcPMxjjz7Ki8+/wNSpUwjDQJwzxu50VEvdtHjiKEWWSeDe9SX+24yaQsxKsXfvHlasWMGePXtYtGgh06ZPI00T4iQmSWJco5paCVgEKyUtjKonpCAiMRxeCNJYp8ZwjWJR75JU8io91yNqRKRJQrWjg6lTp3LSSdMYGhriX/75n1m5ciWLFi6kVCrhuGLr2YBskqZ4rkt/fx+dnZ15biFA0kzwfJ/u7i4OHjrIIw/9invvuZd1z67jxede5JnVz7B+7Xo2rNnAixs3seX5rTz20BM89tgTDL4+RLnagXI90ljmlGUaz/VIYmnZMPGEiby+/3UGBgaIIsmkUcqlUq3ieT4jIyOMDNdMCY3Yv2pU7MjUVBrb2K6V73uEYUDcjCW9LU05fOgwq1et5i+/9jXOWbiQa665hmq1ShCExFFKHIn9OzIsnsjOjgoHDxxEZ5og8HnrxRfT0VHlheef58f/9mNOmDiJ+WecAcDkKVPRKB5++GG2b3+Zaz70YeqNBvVaw8TEBOm7u7uZ/abZdHR2EsXSpMlKgVmzZjL7TbNNXZ6L6yh2797FT35yE339fbz/fe/jqqv+O1pnPPfcRr733e/y3HPPiZMkTQhKAbV63eRuwvMbNrB61VOCmI2GeDsVlMIgD2PMOW0Op86ZQxCGeL7UU3rGO2pVxWYzxvXg5JNPplQqEQQBHdUO0iQhDEP6envp6e2lq6uLjo4OKuUyM2ZMR+uUZqNGGPrseu01vvmNb/Kz227j8KFDMu9MSweDRNYgx+9MGEoSt9TULBHnW5pIQXKWiUOp2WxSKpVz7c5xXSqVKr7faqNhtSX7f5HelOnq4H7xi1/Mg/VFiWj/lwtNfqIJzTmOi+/7BGEoGedlMaDr9TpJkjBp0iQ6u7p49plneG3XLgA+/elP09PbKwM0rmvPdL8Kw5C3nP8WlixZQve4brxQPGg6y3B9B6UVmzdv5m/+5n9x/7L7Wb16NStWruCpp1axds1aVj/zNCtXruTRRx/lvvvvZ8PGjcyaPZupU6dIonSgche1Nh7Mffv38eijj9JoNLjkrZdw8skzyLSmu7vC7l17uX/ZMiqVKue/5Xy6u7vxvYCw5Lc8aLb+0rHc06ippurC2ktCAB4vb9/Od7/3PWbOnMmnPvkJuru7CUslworYfHHUJKwEvL7vAPv2DdDZ2YXrepRKUmERxzFbt77E8PAwewf28rE/+hiLFy8mSVKGh4fZtGkTAwP7WLBgAVdccUW+tq5yCEJpydDR0UFvby/vfve7mXLiRHwvQAGdXZ3Mn38Gp845ld6+XrGl0pSHHnqI1atWc911f0KWpYwfP57evl52vbaLTZs20T++nwULFojX01F4rsvGjRv55T338Itf3MnmF19g4Tln43qu0UZamhaOhJq01vi+OJoEz1xKJfEyNhoNYQqOT7PZIEliVq5YwfPPv8DVV1/FtGnTwaiYcRxx/wP3s3dgD5df/nZOPHEKOsvwXAffDxgaHGbpuecyffp0fD/A9yU+a4lHeYo0tvWs8jsoi9c+Mw63KIoolcpUu8o88cRKli9fzuWXv50lS5ZQrVTp6q7iugrXkRinvX8RirRmwbGUatOGioSobWZ98QLXlVIgkynuei6NWhPHU5QrZRJzn+nTpjHhhAkopZg+Y3oe1M1MOpLjiE2ZJinTZ07nzDefSd/4PlxX7mcfKfE4xQknTGThOQtZuGgR02fMoL+vn66uLsqVCqVSSBD4lCplTpp2IhMnTcRxFVGSoBVkqXA4z3cJfJ8kjdm3b4DBwcN0d3eJo2JkmCxNGBqq55LMcRS1kRGSOML14PDhIenJGbQqPbJEMu0xa1epVsRREUudW71W59VXX+ELN9xAo9Hgox/9KOPGjcPzZYPqI0201ni+T6MWsWXLZn7wgx+QZiJRR0aktWBHZyfnn38eO3bsYOnSc5k3bz4jIyPoLOPSSy9m8eJFdFQrvPe976Gjo0oYhoRhCS/wiKMmcRyRac3Sc5dywqR+4kZKmiS4nkuSJMydN5fTT58DpnTn0Ucf5Re/+AV+EKB1xrRp0wiCgKVLz6Wrq4vevj7u/eW9fPObf8ee3btzE+K5557jqaeeYv36dRw+fIgw8PE9F9JUbCzPa7UAQeN7HqVSQKkUEAQ+juuQJIJ35XKFUqlsMlskbnfSSdMYP76fRx55RFTUzjLVzgrr1q/jweXLmTRxIlOnTkFrTaWzi9pIjb7ePq7/0he48sorqVTKOQFaD7ClgSQ1Fe8KarURdGo8nK7CC8VzHCcxB/YdZmBggP3799PR2cnMmTMJw5BmIyFLJRvI8xzjrBPNz9KSxZMijJKEYoCOBmUyZor/O46Tu+kluGmD7BIct3rwqzt2sGvXa3zgAx/ktDlz6OrpQiHfpcaOev3AAfbu3suaNWvZN7CPnt6e3MuYpGmeQNzT08M5Z5/NhRdeyHnnnceFF17I5VdcziWXXMpFF17IW9/6Vs4//zze8pa3cPHFF3HChAmiaiFqhqRTSanMq6++wo6dO9m8eTOHDx9i/vz5TJ8+3ThXUrq6usjShLVr19LV1cmMGTPo6OjEM0Z6ZjIq7Fo4SkmAWTnEpg+nbHJCFDX52c9uZ+/ePVx77bVceMEFdI/rxnVcGo2GZKlUKtRqdcIg5K677uL555/nbW9/O5iYk9Q/+lQqZbZt28Y111zN5CmTCQJhKENDQwwMDNDX18u1135Y1i/LGB4ephSWqNVGeP3AAQ4fPsxrO3exZdNLRFHEhInjeWX7Kxw6fJg1a9awcePzLFgwnzVr1vLzn/8cgO7uLubNnUd/Xx+laol//sd/QmuJo43r6SHTGePGdTNp0iTSNOW0007jtDlzuPnmW5g8aSJXXH655H4K8ojjaxQiaqxOn5kQEEiDKWUKo1Wh/02SJLz22musX7+BKVOnMHfeaQwPjvDggw/yxIonOHXOKbz14otFk3AcgpLkzb60+SVef/313L53Ag+dSCqc67m4votOJV7qug6ZTsVJpmR4NjPKZtM8/NBDbN++nfe///2ccsrsfM2V6xKGrWZSqpA7O3reLVDNZlPbk1tpPS1dVinT5GkMyDIJzIcmvy+OpUtXpjW1kRH+/rvf5fnnn+cHP/gBXV1dxoPaiptonfH4Y49z22238cwzz/CWCy7gi3/+53R2d7bazCkYGRohThJBRtcjjiWh23YBy0z/mTiKxD7xA/FwIR3g7POSOObQ4cNs2ryZf/j+9xkeHkZrTVdXF4sXL+ayyy7j9NPnkMQpG9dv4LOf/Sxz583ly1/6MkEQUC6XcT2Per1GFMVUymUjKSQtK8s0g4ODuI5DqVRi//793Hvvvdx+x+1ce+1HOGP+fADKlYoEpJEEZqVEFXv4oYf513/9V9797nfzB3/wB3R1deE4IqXTJCUMQ4ZHhgWJPCFOCdBrXNej0WhQrpRxlEu5XAItWSZRFLP95e3ceON32LN7D2FY4nOf/xxLz1vEt//uRh599FHiNGH8+PFcd911TJ8+PSe0ZrNJpVxBId5abcp3KtUKw8MjaCAw3l+QtL3169bxJ9ddx1lnnsn113+eE6dOxXU9lOdBW5MlG0uL45RmvUkplPSyJElIEtGCpPZS0YwiGvUGP/zhv7BlyxaUUpxx5pkEgc9Pb7mZyZMn8bGP/SHnnX8e2qRA6lQqYx577HH273+dP/vsnzFj+gx83yNJUtI0IQhD3MAzUqwp6Yue8VyahHKbtTUyXGfnzp1cf/31TJ4yhb/6+l9RrVYEx4A4TahWS0RRE8dx8tQ8KwnHIsI8gbvoxSkukmqThEVIE1nAhklrUkoxUhshajZ5+ZVXuOvOOznrrLM477zzco5++PAg5DmTDv19/Rw6dIiVK1cyecoUzpg/nyAQr1YcR3ieT2BsBN/z8QOJwWmkRYQyni0FhKUSgS8OFeu5HB4ZRmsISwHNRgPf91i1ejW9fX284x3vYM6pczjxxBPp7u5m/PgJdHZ24iiJ1Q0PD/PqK6+yYMECkY4mg8P3JVFZI7ZfHEcoRLpL2pqo7c89t5F/v+nfqdVqvPLyy6zfsIGHH3qIp1atZvXqp1mxYgUrVqzghRdfZNl9y3j88ccJAp/Zs2exZMlSsUtCl1I5IE3ELhk3rosoalKulIliUWWDICDLMsaNG0dmY62eS9SMcV1HEuhrTU4/bS4vvPgie3bv5vLLL2fy5IlMOmEiM2fN4ulnnqGvt4+rrr6KarUKYGouNeVymaDk06hJsD+OpLwnjmOaUQTYcIxDuVxmw/r1LFu2jJNPnsnbLr8cx3UlPmjb05vQQaYzHCWJAUmSmpQwiespg8DFfM8kScSJNHs2SZywbds21q9bz+5du1i6dAkf+MCVvPnss3Bdl3qthuM4rHl2Dbfdditbt26hWu3gnHPOySWz4ziimvom3quQgmolWl7daCeOK2PJMmH03/uH7zGwbx+f/MQn6e/vy/c7DH3iRDSTUqlMka7GIj4LjmOySRyjJliK5Sii04LW8mDHdSlXKjSbTYaGhnAcl57eXjZv2gTA5ZdfnqsgNsE6CHwcT1GvN3Bch66uLgAqJv6ilEO5XKJcrpAm0u7CUYoojknTjHq9zsjwMFGzSb0mUsmCJQJJlfLpqHbgex5pkhLFEVrBVVddxYc//GEuvPBC3vu+9/Lf3v9+3v++93H66acRBJKu1NfXx/ve9z56+/q46aab2LFjB6VyWRiPiT1ZdTyKxK7QWpu6thIPLl/Ot/7uWwwNDZPECa8fOMDGjRt5bdcuNm/azJYtW9i0aTObNm9m5coVbNmymUZDynaWLFmM1hnlSkASZzTrEVqnVDpC6rUGlWqFZtRgZHiYMAwpl8t4ntiPpVLJuMdFC3Ac8UROmjSJnp5xuMbBEIYBI0M1xo8fz6zZs8ScMH1DE9MwyTOxwoMHDxDVI6rVKoODg7mE9D3p/ROGoYQ0msIUyqUypVLJpCw6BGGp9X4IrfOmS45qZTK5rjBpyeEULckPHFzPEIeWPrDlcpkpkydzzTVX841v/i3f+953+frX/5JPfPKTLFq8mNRU7Xd0daF1xqJFC7nhhhvo7u7m9QOvC/EXmiA7jivasAkA2NKqOEnItCaJpc9Qmqbs2b2bBx9azvZt23jfe9/LwoXniMffcfA9D+VKBU8ewiu0ICkKtnZwLLUeL2ijwivDzRyTunX3Pffwt9/4Bk89+ST/+Z//yd333EMYhkycNIlSqUQYhjQaDaqVCq4vTZSCwM83UptGs+PGjcM3XMfygGazSRAGeK64r0ulEt3d4wjLIUEgx7MsIzK9QPr6+kyOpziBxFMo9o3n+4zURujr68FxFJ7nUO2oohzwPNOuwngCJkyYwB997GNs3rKFZcuWMTQ0BCbLPsukXCkIAirlMp5pV6GUw0svvcSPf/xjGo0G47q76e7uplwqMX78ePp6e6lUSpTLJaZOnUJnZwe9PT1MnjyRnp5xzJx5MrNnz6JU9omjCOVkhKFHxQTWbb1buVRmwoQTwNQjlsuC+LJHGc1mA88X9TFNMvzAo6+/D9eVBrm1kRHSVNpBhGFIuVSmWq1Sq43guA6VcpnIxMR6enqJ4zjXMAKTwqeUoloqEzWbZFlGZ2cnSkkStudKCxCsr6GdoZvrMZXwIi2krKtcKUuaoNbSDEpleIEE1V3PAaXJdEp3dxeTp0zipJNOpFIuk6Yp1arUXGbGLHGCgI6OTlzPJwxLdHV1GUYlaXapCV1lmXTUs1UfQSChMdeTtdq7Zy8bN27kpptu4qKLLuS973sPg4OHcFyF4yqGRwQ3Aj+gv78fVWhifCwChONsg380m9DCpk2b+Pf/79/ZsHFDXoM1rmccX/riF5k0eTLlcpkkFk/cKIIXpsfDDz/CZz7zGd75zndyww03GCKUWreoKSlENpSDsQGtiC9OUGupvADIEimjyaEwBSG00XOyx7LUtnOQYmLP93jkkUe44/Y7OPHEE/nUpz9NR0e1db09ucBNG40Gg4ODUkGQSA5oEdJUSnPE9knzcEKz2cR1Pbq6OglKvjS8HaWRqNYDzdTs/O05xfVQqhWQVsphYGAfX/va19izezff+tbfMW36NBzHZfvL2/nTz3yGk08+mb/6q7/OJaBrmJ7CxM8i8bCGoWSjYJMWwoAoidDmuweXL+eGL3yBpUuX8td//deEYYjnSXMsqxXJAFt/JolkULuOK4cV8gC0XGccHxgzSJvEf5twnsSmIZcZs7TOUGRxwq5du/nqV7/G6wde55vf+AaTp0wRQvTcPIHeOmZ0W6uXWq2G7/ns27eP73znO5x73nlceokkQlgTLDbt/z3fB6VwTUXG8cLxiUAlizHqU1ikU049hclTJpGmCY1GjUmTJ/K5z/4Zff19VCpllAI/8NBassnt4keNiKHBIQ4eOIBrknoHB43N6PtguYmCZtwkI5PuykpGnulMZuCAclVOgID8bXG2bU3aCbB4zHFVHlj2fGkIfOGFF/DRj/4+CxedQ1AS+6HVfbtwfzOWUqVEX38f43q66e3vo6d3HD294+jt65G/+3ro7umms6uLnt5eqp1dhKUynV3ddHR1mvCPtM1XrguOYz4S1sERYrMd6IrzscxJKelrapsiSXBb4mOHDh3MiT6OolyCNuoNDh8+ZFQ/6UAg9lqrMZO2qpV5pONIoXDRqSfOFpd6vcbevbvxPGnwpG2pQmZ/txiGCMvRTBWAgj1lNQ3HlfxiS4BgK2/MuY4QbRIlOK5HpSKOE9/zTVeEjFp9hEazgeOIZ5tMS+E3kqKotRQFW9uut6+Pj/z+74u3t1rNq/clTVGqfbTOEAf8G8q1UXB8RDgWCHuShVVw9dVX8Z3v3Mj//t/f5ytf+QtOO/10SqVQKpELSOJ6ks+YZZogFI9jkqZ0dnYSGyK0ZULNelPSiTKJEdmNt4nI1vM5FlEdC95okeIoIk0THMchajZxXJcFZ7+ZpeculeRynZGahkHtYJHU9aQgVHqpmsJlc8wznQJcz8HzTVDXETXO96WG7Vhgn1tEwlGqgoFMS/Nkq2LJOgmS7du3j0qlQpplvPLyK0aKWHtQ1rTZjMAQcBRFrVZ/JoMq0+LdteVkrucSRRH9ff1oLUFvaU3RYt6j1qzQEh6xjWTu+fRNbKLARZUj87Ymg/1Km16xjpKgexxJuxVQ1Gp1Dh48IPtizJlqR5UgkE5vRfzUSuxRbdfOUdTrUk0/d/7pEjYzCeFNo4Y7SmoM7br9uvj4mxMhQojKcUnjmJ6eXmZMn8HkKVPo7ekVe6NSERXCEKzrexzYf0Dczc0mBw8eZHhkhEOHDnLg4AF279nD5k2bDOJI7NEudpKYgt7fYJLt8EbX598bBGnW6ySRIKRjm8paJGgj6vbxOW3t4bWWxlnF60XQyVyPo9fuKGg9yyJ6C1zPww8CmvU6yoEHlz/Ajld34BqPdr0u+ak9vT1kqSSf27G2VH6HOJFW87lDwzSMAqOF2LBTpqnVagyPDEt2Tl8v5XI5z5ByvNZr8ezHjl+k3Fj7Isck4N16I1K+RZl1+LXW03UlS8l1JbieZsLkd+7cychIDa8USNVOYl4oqiBK4kIrTAk5+b6o0OVyBd/3qA1LH1rphIfx1gdiU1fKuXpqmdTxwm9HhAYc04bC831cx8UPZJIHX3+dSrUDlKJRbxLVI7q6uqjXGyijHixbtow777yTyZMmc/DAAe6+5x7WrFljKqpNb1CjUo29Sb97ECeLUEMQhiarpFUbZsFKPfv3WKDawj/2/+IxrSW9SilFHEuB8K8HRxlDZl/U4vD06lW88srLzJgxnbPPPpsHHljOphdfxPWlKVNvXy/aNCC2Y5SWDanEXf2AUqmEbzoMoIUStKnv3rx5M4888gjjxo2jNlKjs6OTiy+6mHK5zMjIcGtMhiG3Qz70tiloU0iL6YqdQ+EWMl75aASrHU/KlX557738r7/5G3bv3sNFF13EzTf/Xx596BE83ydJE0aGh6R0ycSVxTsvN5fmVTFeKMF829dUOcKkXE/amISlVgd3GeOR8zsWHGc94RhgKy0cZRqvSkxKVETJqLG2RrPRxPcDyeUzryELAnnpysHXDzBnzmn8we//PvPnz+dNs2czfcYMycYwHjRNqywEK03s8wu/fxeQ2ffaZRmNZgM/CHFc6dDlG9e8NoWsxef+Js/XhZZ4jnGAWD+Z0/5GpjFAHmk3vcVP83UyBcWecXDNnDWTCy64gAULFlCuVJg4aRJ9/b2sX7+R5cuX09/fz9vf/nZKpZDUJFMrRF12PWOPWRvKPlnB8PAQ//iPP+Cf/umf2Lt3L888/Qz948fzR3/0MYJyGWXbVygpE8uJ0PyytPXGM27NTZkfynywt3YgTTQjIzVcz+PAwUOUK2XmzZvHokWLcJRiytQpTD5xqjTpLUQHmlEk4adQ8lwViI0YJehMcmO1CWs4tiBYSfmWMvspb+X89fDhOL2j7UcKoBRJHBGb7tKuiQfVTVeqMAxJ4pQgCMGVXFDXdYma0sjVMV2ZdSaerSJRRc0mYUmycaJEep8ca3LH+u6NoEjQWZriKjG6/cA08FEK1/eJ4zi3PdqvLY5dOOKxx2TVO+vU0OZtUVJFcPTrZLPFT5P326el9rY/M43Fe5dlGZ4fEDcjfONxHjw0yIqVK/na1/+SRQsX8fW/+jqdndIhwfd9MuNHUw6mGsWMV0GSij1Vqw2zbt1aHn/8cYaHhzlj3nzmz5vHm055E2ka45uMKhmq6bJt5pC/kk05R8UzbTQOW12T+wIMI8iMPWs7uPmBT6PRJAxCRkaGKZdK+IHHwO4BJkyaAMhbsfzAvIFJa5qNBq7rSvzXdkA3/C2JYtAKLxSVNAxD0SAS05NVSYlNqrPcX/HrwBEvCR0LjrY4YDDHeJesJ04Oa4aGhqiUK4QVaegktoNxzhjXsOV/iUEUP/TFBW24uAScHeJUsjSKyD4W/LoLMBakpvDUcT1J3jZeuSiJ8ywdC1pL0axSo+08C8caT5Fg7Xycwmu8R4VzCpAZlU5JYwpzVNLmrH2Wn2sku+vYwL1kt9x22208/vgTnHvueaxdv55Vq1bxP/74f/C2t72dUkm8qOIVlR3yXOkUkGWSH6wcRZykplpAoVQr1dFxHJJI1k2beYoT6ci1KEa/xg6FtYLddq3a11SWQ/YH5NV2SZzhmq54Rfz1fI80lfcLKkcKk7WWVyzY+6ZJQmZCR7YC3zEFuDnTtPhn9yjLiNNWps/R8HMsOKKecEwYa20smPf2Fe+jlMILAnr6+kCJq9wPfVCayGQT5Gqr0ec9X7gSZkHt25gstNtjRwM7jiJi/yYgDohMAsmOvDFIEnhbGfE54TDaUXM80GJCLUI9nvkdCSrfIMugiuA4rddZayN9Mp0xPDLMs2ue5eZbbmbnzh1c/NaLWbp0KdVKGZ232xcmr8wjbEtD5YgH03UdPK/1vDSVLgiYALxGyUs6Xa+FRFbCm3tYOJozI19jg+wWD4ofq8r7rie9YZKMJI5QpkrDets942hRysHzA3Fc+ZIsgt1zE2u0ElrGIBpArgU4LT1YZyk6kxfRuK4UL/y6eHdc6ugbQfvGU0RiE3i3C6Yz0SHyS5T8n2Xikco3xo7KIIDlgEebYPsYLJEUj7ef80ZQHPeo46moU2NJKju+9muOBPP21qNAcZ7HdS9oIXoBkjTBUY5UkZiWjVmWcfjQIZ59dg2Dg4NMnzGdE06YSG9vT27HSwxSynfeCI61J2OtYc7ETOK9ckSLkLc6HzkHC7n9bOZAkfFo0/UukywpnMKyUMCzVEIQtDF2y6Cs2Bxrby0UcdHO3eK6NvHbYtz0jeB3QoRjgZ2cxGq0SbqWjBRHqSPwTzjU6GNF0OrXJ8J2aD/naKBNCh1I7Kq4USC2jWI0J8/h6PQwGlTrnOJm2jkWx3q8424HrXWe0mb/z8wLbLRRS9Msxff8UfZ2bEyDsZxhR4P279vXv/27TEtmUmZa8ytlXsd+DLCOOnG+jCZupQprL0pwS1XMPayttVZKusWNlsYmYG/GV7T7i/uSpAnadnZvW5/EtDgJTHXN8cB/GRG2g0xC4jrKLloBfhsiLC7EseBYSFQEex+7sO0I9FsTobZZP6Pnk5qCaPtcG4w/3nEfC7IsIzMBdGXKg+yz7bra5xdVPlFLjy4VivBG60/hWcVz8/sfBxFabUkkmu3hUjhJmx+j9sz+bjEKXSSywvX6KA6Q4h4cIYXbYJTmdzxr8v87EWoJLBW5DIWFGmNO8DsgwrEW62hg72M3rXitNkQIasyxvtE8YDQRyr9ykSUCC78LIiwSV1FF0kYSUiC69ufZAmUbQysicRGOte4W7DlFB0fRzsvhGISoC7R1zHXWQlhF4tP2HYhK9q04ZJX/OD4ilPuJ3Ww/bltb/+NZEwv/D5zOBUDr0rKxAAAAAElFTkSuQmCC;" vertex="1" parent="1">
          <mxGeometry x="530" y="333.8" width="225" height="43" as="geometry" />
        </mxCell>
        <mxCell id="eJ2LpnvItJs-uyWbNVWC-48" value="&lt;font style=&quot;font-size: 18px;&quot;&gt;Salida&lt;/font&gt;" style="text;html=1;align=center;verticalAlign=middle;resizable=0;points=[];autosize=1;strokeColor=none;fillColor=none;" vertex="1" parent="1">
          <mxGeometry x="645" y="244.5" width="70" height="40" as="geometry" />
        </mxCell>
        <mxCell id="eJ2LpnvItJs-uyWbNVWC-50" value="&lt;font style=&quot;font-size: 18px;&quot;&gt;cuerpo celular&lt;/font&gt;&lt;span style=&quot;color: rgba(0, 0, 0, 0); font-family: monospace; font-size: 0px; text-align: start;&quot;&gt;%3CmxGraphModel%3E%3Croot%3E%3CmxCell%20id%3D%220%22%2F%3E%3CmxCell%20id%3D%221%22%20parent%3D%220%22%2F%3E%3CmxCell%20id%3D%222%22%20value%3D%22%26lt%3Bfont%20style%3D%26quot%3Bfont-size%3A%2018px%3B%26quot%3B%26gt%3BSalida%26lt%3B%2Ffont%26gt%3B%22%20style%3D%22text%3Bhtml%3D1%3Balign%3Dcenter%3BverticalAlign%3Dmiddle%3Bresizable%3D0%3Bpoints%3D%5B%5D%3Bautosize%3D1%3BstrokeColor%3Dnone%3BfillColor%3Dnone%3B%22%20vertex%3D%221%22%20parent%3D%221%22%3E%3CmxGeometry%20x%3D%22645%22%20y%3D%22244.5%22%20width%3D%2270%22%20height%3D%2240%22%20as%3D%22geometry%22%2F%3E%3C%2FmxCell%3E%3C%2Froot%3E%3C%2FmxGraphModel%3E&lt;/span&gt;" style="text;html=1;align=center;verticalAlign=middle;resizable=0;points=[];autosize=1;strokeColor=none;fillColor=none;" vertex="1" parent="1">
          <mxGeometry x="450" y="112.7" width="140" height="40" as="geometry" />
        </mxCell>
        <mxCell id="eJ2LpnvItJs-uyWbNVWC-51" value="&lt;font style=&quot;font-size: 14px;&quot;&gt;axÃ³n&lt;/font&gt;" style="text;html=1;align=center;verticalAlign=middle;resizable=0;points=[];autosize=1;strokeColor=none;fillColor=none;" vertex="1" parent="1">
          <mxGeometry x="605" y="195.5" width="50" height="30" as="geometry" />
        </mxCell>
        <mxCell id="eJ2LpnvItJs-uyWbNVWC-52" value="&lt;span style=&quot;font-size: 18px;&quot;&gt;sinapsis&lt;/span&gt;" style="text;html=1;align=center;verticalAlign=middle;resizable=0;points=[];autosize=1;strokeColor=none;fillColor=none;" vertex="1" parent="1">
          <mxGeometry x="270" y="70" width="90" height="40" as="geometry" />
        </mxCell>
        <mxCell id="eJ2LpnvItJs-uyWbNVWC-53" value="&lt;font style=&quot;font-size: 18px;&quot;&gt;umbral&lt;/font&gt;" style="text;html=1;align=center;verticalAlign=middle;resizable=0;points=[];autosize=1;strokeColor=none;fillColor=none;" vertex="1" parent="1">
          <mxGeometry x="400" y="385.61" width="80" height="40" as="geometry" />
        </mxCell>
        <mxCell id="eJ2LpnvItJs-uyWbNVWC-54" value="&lt;font style=&quot;font-size: 18px;&quot;&gt;Entradas&lt;/font&gt;" style="text;html=1;align=center;verticalAlign=middle;resizable=0;points=[];autosize=1;strokeColor=none;fillColor=none;" vertex="1" parent="1">
          <mxGeometry x="105" y="300" width="100" height="40" as="geometry" />
        </mxCell>
        <mxCell id="eJ2LpnvItJs-uyWbNVWC-55" value="&lt;font style=&quot;font-size: 18px;&quot;&gt;dendritas&lt;/font&gt;" style="text;html=1;align=center;verticalAlign=middle;resizable=0;points=[];autosize=1;strokeColor=none;fillColor=none;" vertex="1" parent="1">
          <mxGeometry x="163.5" y="400" width="100" height="40" as="geometry" />
        </mxCell>
        <mxCell id="eJ2LpnvItJs-uyWbNVWC-67" value="" style="ellipse;whiteSpace=wrap;html=1;aspect=fixed;fillColor=#f5f5f5;gradientColor=#b3b3b3;strokeColor=#666666;" vertex="1" parent="1">
          <mxGeometry x="253.5" y="315" width="10" height="10" as="geometry" />
        </mxCell>
        <mxCell id="eJ2LpnvItJs-uyWbNVWC-70" value="" style="ellipse;whiteSpace=wrap;html=1;aspect=fixed;fillColor=#f5f5f5;gradientColor=#b3b3b3;strokeColor=#666666;" vertex="1" parent="1">
          <mxGeometry x="242" y="290" width="10" height="10" as="geometry" />
        </mxCell>
        <mxCell id="eJ2LpnvItJs-uyWbNVWC-71" value="" style="ellipse;whiteSpace=wrap;html=1;aspect=fixed;fillColor=#f5f5f5;gradientColor=#b3b3b3;strokeColor=#666666;" vertex="1" parent="1">
          <mxGeometry x="228.5" y="270" width="10" height="10" as="geometry" />
        </mxCell>
        <mxCell id="eJ2LpnvItJs-uyWbNVWC-72" value="" style="ellipse;whiteSpace=wrap;html=1;aspect=fixed;fillColor=#f5f5f5;gradientColor=#b3b3b3;strokeColor=#666666;" vertex="1" parent="1">
          <mxGeometry x="228.5" y="223.9" width="10" height="10" as="geometry" />
        </mxCell>
        <mxCell id="eJ2LpnvItJs-uyWbNVWC-77" value="" style="ellipse;whiteSpace=wrap;html=1;aspect=fixed;fillColor=#f5f5f5;gradientColor=#b3b3b3;strokeColor=#666666;" vertex="1" parent="1">
          <mxGeometry x="228.5" y="187.1" width="10" height="10" as="geometry" />
        </mxCell>
        <mxCell id="eJ2LpnvItJs-uyWbNVWC-79" value="" style="ellipse;whiteSpace=wrap;html=1;aspect=fixed;fillColor=#f5f5f5;gradientColor=#b3b3b3;strokeColor=#666666;" vertex="1" parent="1">
          <mxGeometry x="218.5" y="205.4" width="10" height="10" as="geometry" />
        </mxCell>
        <mxCell id="eJ2LpnvItJs-uyWbNVWC-81" value="&lt;font style=&quot;font-size: 18px;&quot;&gt;Neurona i&lt;/font&gt;" style="text;html=1;align=center;verticalAlign=middle;resizable=0;points=[];autosize=1;strokeColor=none;fillColor=none;" vertex="1" parent="1">
          <mxGeometry x="455" y="40" width="100" height="40" as="geometry" />
        </mxCell>
        <mxCell id="eJ2LpnvItJs-uyWbNVWC-82" value="" style="shape=image;verticalLabelPosition=bottom;labelBackgroundColor=default;verticalAlign=top;aspect=fixed;imageAspect=0;image=data:image/png,iVBORw0KGgoAAAANSUhEUgAAACwAAAAiCAYAAAAkjjtxAAAAAXNSR0IArs4c6QAAAARnQU1BAACxjwv8YQUAAAAJcEhZcwAADsMAAA7DAcdvqGQAAAkhSURBVFhHxZj7j1XVFcc/+3HuuXdm0AEd2lTLa1IQsVh8AtpKhtCQVDE1bTSxaU1/bNL+UBNq0pr0l/oP1MRajI8mJk2Ij0S0kqKFNsEgNEAZRNLAWOTVCvO+j3PO3nv1h31fA4OMxqbfZOXus8/Zd3/32t+91jpH5XkuANZaggSMNlwKEbm0qw2lFEECIoKha6wCWsO62iKd/xMRlFIoBRBA6/bwK0ErpQGFUgqtNCLStm5IaE7S/G0h+IBCXbZQCbO3231dnQpQSqOu7Jc2tLUGaywEyBsF4oXgAvVqHQKIF5SoNrEidygUShSESLjIHAh47/HeA+CKApoezbKs3fbOIRLQ2mCMRmtFdHHL4q6p6Pa241rXWgSUhka9gXcerTRGG9JSmTzL44MCWhvOfHwGRPjk358wNTmFdwFEISGQ1bO2l0MQbJIQghCCJ0ks3ntCiIuJBNrNNkSkveDZdhlAhSDiCheJJpqiUSDSnNB7QgiMjY+ze/dudu7cSb1Wo1ypICGwZs0aHn7kEQYGBjoeMArvPPVaHZsklCspCBR50X4GwCa2w0KixIMEfHBYa1FKzfBu61o1Grkk1pJnOUWe09vXG1fqPDax7PrzLrZv387Y+BgbhzbS39/PwMAA+97fx8GDB+mp9PDggw+yZcuWNiGbWEIIaKMJPlCv1ent623vmGkSavOXqIbCFfgQ59UqHsAQAlrrzmKzrJBP/nNB6tW61KZrUp2qSnBBxkcnZPsft8vQfUOyaeMm2bd3nwQXZGp8SqbGp2T0wqi8/urrsnnTZrnz9jvl5T+8LNWpqtSma5LVMvGFl7yei8ud1KsNCU6kNl2XvJ6LeBEJEn+9iMu9+CJI1sikVqtJ4Qrx3ktRFJLnuRRFvA4hiAZFKUmxJiGxJdJSGWUUhw4e4plnfsf8BQv4xdYnWH3rrYyPT2CsxVhLKUlZt2499z/wAGmpzDvv/oVT//q4fXiU0hhr0dpQrqTU63VCU5/dXo27LgTvkSBordFdErhUxxoUxiaIxMPifSCvO7Is58KFiwwMLOT2O+4geCEtlSklaQxBSrPwywOsXbuOZcsG+WjkIw7/4whZVuCD4AofiWsoMoc1Bm0M2nRirYROeGsR01qjtZkRJUIIzRWCeeKJX/5aax3DDWC05uzZs+zYsYNz589jtGV6apqRkRGGh4c5c+Ysx459SLVW5fixf9Lf349zjl27drFi+XI2bPgWR4eP8tunn+bcufOsuvkWkpJBaYX3DmuTGYevFS5DCCitSJLO/RhlWiEwRiCtlSDi0UZRSixJyVCrTXPu3Fnm9fXhg+e9995jx44dvLHjDd58803e+tNbvPjCi7z62muMjY5RKaeEUDA5OU51usrp0x+z7ffP8vcD+8nzjPHxcRqNOkkSDxtEOcSmijsbhOCbOmlCKY1zgUYjoyg8EsCC0GjUWXDdfPBCo9FAKcXY2CjOFXx70xZWrVoV9RaEcrnM5NQkPZUeyuUylUqFvXv/ivMFo2MXOHXqI5av+BrPPvsMX7nhBrwvKJUSrOlsczdEwLkonzgHKBP7Y6SIWvbOY41FtwhWJ6tUq7WY9YCiKAAhSSx33XUHt922hrVr72bVLTezfv067rr7Tr6++hYWLf4qaZqSZRkDAwPMX9DPjTfewPce/j7r711Pmpbo6enBeUee551DJBBCR7sx6xl86KTyIIK1Ji44SVAatDaGNC3Hk18qYRNLmqYsXbqU6elpDh0+SOEKEmtROqbcUikhzzOmpiaZmBinWquSJAl9vX2USiVq1SoH3n+fv+3ZA0CeNRARjDYzaogYNSSm51Zf8Dgf8D4gEtpJwzQLI11KSqRpSpqmaKPx3rN02TKGhoY4deoUENO2sdHzlUqF4GNV1z+/n+MfHmd4eJjFi5fQ09vD5OQk+w/sZ9u2bezcuZMgQilN6Z03r51IRJpb3qwljDEYY9vXUTkCBIzR7QMnAXSaphijGBsdbRcprigYHBxkaGiIEydO8PbbbwNgEoOxMYvZJGH0wijvvPsuJ0+eZMOG+7j/O/eT5zkjJ0c4d+48zjmKPKfIC4Lz8bQ3x4fg0VphSwabaLQBoxXW6qYZksRircHaeL8piaj3efPmkdikGWMVi5csYevWrfT19vHcc8/xzq5dHDk8TKPRICmVOPbBB7z00kscPTrM4OAgW7Zs4frrr2PpkqUMbRxCt0KTxMW1kklr+2NZ20Q7YlyKmZ0SBCUi4p1gtML7QL1WI01TbJJQ5Dn7Dxzg1Vde4fTp0wBs3ryZaq3G3r17ybKMRYsW8diPfsjqW1e3s9ORI0f4waOP8t2HHuLJJ38Fopqk2/E/chEhSPR8i1wQiIVxd4ZrFUE6Es4bBdbauHoNwQnBx+Ilz3OM1uzZs4cTJ05ycfQiIsLKm1ayeMliblpxE73X9BDr4UCe5xw/fpwfP/YY9977TZ566jekaZmkRbjlNIne14ou9yqCwCwvPR2EriLkahZckOCC+MJfYkGCE8kzJ9PTdTl86Ijcs/Ye+elPfiZjF8elUcvE5a5T9HRbN7xICC0Ls5qO7v5sppqaa1nrZCfWkKYlJiYnyIqcyelpxsYnSCslXAiIanq427ogbSl0y2EmovJnFfzlaMXEjjVfXXTM+7V6g0Yjo1yuMDk1zTXXXsv1AwtxLo4Ps73cNXFpVXYlqBCCtMPeZ4Vq1YcKERgbn+D5519gz57d+OAolcosXPglHn/85yxfPtgeciXMhbSSWHR+PsK0SMemD7D/wAFGRkZYuXIFWZaTZTlr1nyD3p4KSjd35AqYO2Fa8eRzQsX3OOcCaSVGA+eEIs+p9KTkuUMpsHb2Aog5kqWt4Tk+PBtaE0kQtInSiGUiGGsIPh7SGaXlDMRnZ793OZqHbm4Pz4bWRDGOa5SKVZaIYI0hSCBpvpRe7kVp2+X3ZocKwYuio8PPA5FIXFT89ATgXMDa+CVJqeYbRZdjYrtFeJYYdwWoEFyT8NwGzAYRAd35WvNpaHmy82yL8Nyg5zLJ1fBZNqcVw7t6utpXh56rdj5N5zHTxfuza/WLw9W/b7YwRxKXe/CLxZwl0f0hr42uRVyuzf8Nmh6+uvdEBO+bRcH/Ef8FTNuhRYSGBgIAAAAASUVORK5CYII=;" vertex="1" parent="1">
          <mxGeometry x="436" y="315" width="44" height="34" as="geometry" />
        </mxCell>
      </root>
    </mxGraphModel>
  </diagram>
</mxfile>
